TitilliumWeb-ExtraLightItalic.ufo
<glyph name="ampersand" format="2">
  <advance width="600"/>
  <unicode hex="0026"/>
  <outline>
    <contour>
      <point x="220" y="-9" type="curve" smooth="yes"/>
      <point x="321" y="-9"/>
      <point x="401" y="28"/>
      <point x="470" y="122" type="curve"/>
      <point x="572" y="-7" type="line"/>
      <point x="601" y="19" type="line"/>
      <point x="492" y="155" type="line"/>
      <point x="521" y="201"/>
      <point x="562" y="296"/>
      <point x="584" y="365" type="curve"/>
      <point x="549" y="369" type="line"/>
      <point x="532" y="312"/>
      <point x="494" y="223"/>
      <point x="471" y="183" type="curve"/>
      <point x="328" y="367" type="line"/>
      <point x="478" y="413"/>
      <point x="539" y="482"/>
      <point x="539" y="591" type="curve" smooth="yes"/>
      <point x="539" y="653"/>
      <point x="501" y="694"/>
      <point x="412" y="694" type="curve" smooth="yes"/>
      <point x="272" y="694"/>
      <point x="220" y="584"/>
      <point x="220" y="492" type="curve" smooth="yes"/>
      <point x="220" y="465"/>
      <point x="227" y="440"/>
      <point x="247" y="411" type="curve"/>
      <point x="84" y="365"/>
      <point x="28" y="274"/>
      <point x="28" y="134" type="curve" smooth="yes"/>
      <point x="28" y="44"/>
      <point x="80" y="-9"/>
    </contour>
    <contour>
      <point x="224" y="24" type="curve" smooth="yes"/>
      <point x="109" y="24"/>
      <point x="64" y="65"/>
      <point x="64" y="141" type="curve" smooth="yes"/>
      <point x="64" y="261"/>
      <point x="110" y="344"/>
      <point x="268" y="383" type="curve"/>
      <point x="450" y="149" type="line"/>
      <point x="389" y="62"/>
      <point x="315" y="24"/>
    </contour>
    <contour>
      <point x="306" y="392" type="curve"/>
      <point x="278" y="426" type="line" smooth="yes"/>
      <point x="261" y="448"/>
      <point x="256" y="472"/>
      <point x="256" y="495" type="curve" smooth="yes"/>
      <point x="256" y="573"/>
      <point x="295" y="662"/>
      <point x="410" y="662" type="curve" smooth="yes"/>
      <point x="478" y="662"/>
      <point x="505" y="636"/>
      <point x="505" y="591" type="curve" smooth="yes"/>
      <point x="505" y="515"/>
      <point x="478" y="446"/>
    </contour>
  </outline>
</glyph>
<glyph name="parenleft" format="2">
  <advance width="223"/>
  <unicode hex="0028"/>
  <outline>
    <contour>
      <point x="117" y="-124" type="curve"/>
      <point x="150" y="-124" type="line"/>
      <point x="144" y="-88"/>
      <point x="136" y="-3"/>
      <point x="136" y="101" type="curve" smooth="yes"/>
      <point x="136" y="329"/>
      <point x="261" y="604"/>
      <point x="356" y="748" type="curve"/>
      <point x="321" y="748" type="line"/>
      <point x="226" y="612"/>
      <point x="101" y="342"/>
      <point x="101" y="101" type="curve" smooth="yes"/>
      <point x="101" y="-6"/>
      <point x="110" y="-90"/>
    </contour>
  </outline>
</glyph>
<glyph name="asterisk" format="2">
  <advance width="407"/>
  <unicode hex="002A"/>
  <outline>
    <contour>
      <point x="353" y="380" type="line"/>
      <point x="385" y="390" type="line"/>
      <point x="343" y="519" type="line"/>
      <point x="480" y="519" type="line"/>
      <point x="480" y="553" type="line"/>
      <point x="345" y="553" type="line"/>
      <point x="387" y="683" type="line"/>
      <point x="355" y="693" type="line"/>
      <point x="313" y="564" type="line"/>
      <point x="203" y="645" type="line"/>
      <point x="183" y="618" type="line"/>
      <point x="292" y="538" type="line"/>
      <point x="182" y="458" type="line"/>
      <point x="201" y="431" type="line"/>
      <point x="311" y="510" type="line"/>
    </contour>
  </outline>
</glyph>
<glyph name="plus" format="2">
  <advance width="560"/>
  <unicode hex="002B"/>
  <outline>
    <contour>
      <point x="319" y="20" type="line"/>
      <point x="355" y="20" type="line"/>
      <point x="355" y="234" type="line"/>
      <point x="559" y="234" type="line"/>
      <point x="559" y="268" type="line"/>
      <point x="355" y="268" type="line"/>
      <point x="355" y="480" type="line"/>
      <point x="319" y="480" type="line"/>
      <point x="319" y="268" type="line"/>
      <point x="117" y="268" type="line"/>
      <point x="117" y="234" type="line"/>
      <point x="319" y="234" type="line"/>
    </contour>
  </outline>
</glyph>
<glyph name="comma" format="2">
  <advance width="189"/>
  <unicode hex="002C"/>
  <outline>
    <contour>
      <point x="15" y="-129" type="line"/>
      <point x="43" y="-129" type="line"/>
      <point x="141" y="83" type="line"/>
      <point x="101" y="83" type="line"/>
    </contour>
  </outline>
</glyph>
<glyph name="zero" format="2">
  <advance width="560"/>
  <unicode hex="0030"/>
  <outline>
    <contour>
      <point x="292" y="-9" type="curve" smooth="yes"/>
      <point x="497" y="-9"/>
      <point x="606" y="258"/>
      <point x="606" y="485" type="curve" smooth="yes"/>
      <point x="606" y="607"/>
      <point x="538" y="670"/>
      <point x="416" y="670" type="curve" smooth="yes"/>
      <point x="204" y="670"/>
      <point x="106" y="378"/>
      <point x="106" y="170" type="curve" smooth="yes"/>
      <point x="106" y="51"/>
      <point x="177" y="-9"/>
    </contour>
    <contour>
      <point x="292" y="24" type="curve" smooth="yes"/>
      <point x="202" y="24"/>
      <point x="142" y="69"/>
      <point x="142" y="173" type="curve" smooth="yes"/>
      <point x="142" y="352"/>
      <point x="226" y="637"/>
      <point x="416" y="637" type="curve" smooth="yes"/>
      <point x="515" y="637"/>
      <point x="570" y="584"/>
      <point x="570" y="485" type="curve" smooth="yes"/>
      <point x="570" y="282"/>
      <point x="476" y="24"/>
    </contour>
  </outline>
</glyph>
<glyph name="two" format="2">
  <advance width="560"/>
  <unicode hex="0032"/>
  <outline>
    <contour>
      <point x="70" y="0" type="line"/>
      <point x="491" y="0" type="line"/>
      <point x="499" y="33" type="line"/>
      <point x="128" y="33" type="line"/>
      <point x="408" y="261" type="line" smooth="yes"/>
      <point x="509" y="343"/>
      <point x="598" y="427"/>
      <point x="598" y="530" type="curve" smooth="yes"/>
      <point x="598" y="627"/>
      <point x="534" y="671"/>
      <point x="418" y="671" type="curve" smooth="yes"/>
      <point x="351" y="671"/>
      <point x="267" y="656"/>
      <point x="223" y="644" type="curve"/>
      <point x="221" y="613" type="line"/>
      <point x="270" y="624"/>
      <point x="358" y="638"/>
      <point x="418" y="638" type="curve" smooth="yes"/>
      <point x="507" y="638"/>
      <point x="562" y="609"/>
      <point x="562" y="530" type="curve" smooth="yes"/>
      <point x="562" y="439"/>
      <point x="476" y="359"/>
      <point x="371" y="273" type="curve" smooth="yes"/>
      <point x="77" y="30" type="line"/>
    </contour>
  </outline>
</glyph>
<glyph name="three" format="2">
  <advance width="560"/>
  <unicode hex="0033"/>
  <outline>
    <contour>
      <point x="273" y="-9" type="curve" smooth="yes"/>
      <point x="414" y="-9"/>
      <point x="533" y="72"/>
      <point x="533" y="215" type="curve" smooth="yes"/>
      <point x="533" y="295"/>
      <point x="494" y="334"/>
      <point x="443" y="353" type="curve"/>
      <point x="519" y="378"/>
      <point x="589" y="441"/>
      <point x="589" y="539" type="curve" smooth="yes"/>
      <point x="589" y="622"/>
      <point x="539" y="670"/>
      <point x="424" y="670" type="curve" smooth="yes"/>
      <point x="353" y="670"/>
      <point x="270" y="657"/>
      <point x="227" y="647" type="curve"/>
      <point x="224" y="615" type="line"/>
      <point x="268" y="624"/>
      <point x="352" y="637"/>
      <point x="421" y="637" type="curve" smooth="yes"/>
      <point x="512" y="637"/>
      <point x="553" y="607"/>
      <point x="553" y="532" type="curve" smooth="yes"/>
      <point x="553" y="432"/>
      <point x="443" y="366"/>
      <point x="369" y="366" type="curve" smooth="yes"/>
      <point x="239" y="366" type="line"/>
      <point x="230" y="333" type="line"/>
      <point x="361" y="333" type="line" smooth="yes"/>
      <point x="457" y="333"/>
      <point x="497" y="283"/>
      <point x="497" y="212" type="curve" smooth="yes"/>
      <point x="497" y="98"/>
      <point x="396" y="24"/>
      <point x="275" y="24" type="curve" smooth="yes"/>
      <point x="215" y="24"/>
      <point x="134" y="42"/>
      <point x="89" y="56" type="curve"/>
      <point x="80" y="24" type="line"/>
      <point x="122" y="10"/>
      <point x="204" y="-9"/>
    </contour>
  </outline>
</glyph>
<glyph name="four" format="2">
  <advance width="560"/>
  <unicode hex="0034"/>
  <outline>
    <contour>
      <point x="384" y="0" type="line"/>
      <point x="420" y="0" type="line"/>
      <point x="450" y="132" type="line"/>
      <point x="542" y="132" type="line"/>
      <point x="550" y="165" type="line"/>
      <point x="458" y="165" type="line"/>
      <point x="513" y="405" type="line"/>
      <point x="477" y="405" type="line"/>
      <point x="422" y="165" type="line"/>
      <point x="129" y="165" type="line"/>
      <point x="470" y="660" type="line"/>
      <point x="429" y="660" type="line"/>
      <point x="89" y="161" type="line"/>
      <point x="82" y="132" type="line"/>
      <point x="414" y="132" type="line"/>
    </contour>
  </outline>
</glyph>
<glyph name="five" format="2">
  <advance width="560"/>
  <unicode hex="0035"/>
  <outline>
    <contour>
      <point x="272" y="-7" type="curve" smooth="yes"/>
      <point x="429" y="-7"/>
      <point x="553" y="119"/>
      <point x="553" y="275" type="curve" smooth="yes"/>
      <point x="553" y="369"/>
      <point x="489" y="411"/>
      <point x="384" y="411" type="curve" smooth="yes"/>
      <point x="324" y="411"/>
      <point x="243" y="383"/>
      <point x="198" y="361" type="curve"/>
      <point x="281" y="627" type="line"/>
      <point x="615" y="627" type="line"/>
      <point x="623" y="660" type="line"/>
      <point x="257" y="660" type="line"/>
      <point x="155" y="327" type="line"/>
      <point x="188" y="323" type="line"/>
      <point x="234" y="347"/>
      <point x="317" y="378"/>
      <point x="378" y="378" type="curve" smooth="yes"/>
      <point x="468" y="378"/>
      <point x="517" y="341"/>
      <point x="517" y="275" type="curve" smooth="yes"/>
      <point x="517" y="136"/>
      <point x="409" y="26"/>
      <point x="276" y="26" type="curve" smooth="yes"/>
      <point x="217" y="26"/>
      <point x="133" y="41"/>
      <point x="86" y="53" type="curve"/>
      <point x="76" y="21" type="line"/>
      <point x="122" y="9"/>
      <point x="206" y="-7"/>
    </contour>
  </outline>
</glyph>
<glyph name="seven" format="2">
  <advance width="560"/>
  <unicode hex="0037"/>
  <outline>
    <contour>
      <point x="198" y="-9" type="line"/>
      <point x="608" y="585" type="line"/>
      <point x="626" y="660" type="line"/>
      <point x="237" y="660" type="line"/>
      <point x="229" y="626" type="line"/>
      <point x="580" y="626" type="line"/>
      <point x="572" y="592" type="line"/>
      <point x="166" y="5" type="line"/>
    </contour>
  </outline>
</glyph>
<glyph name="nine" format="2">
  <advance width="560"/>
  <unicode hex="0039"/>
  <outline>
    <contour>
      <point x="242" y="-9" type="curve" smooth="yes"/>
      <point x="391" y="-9"/>
      <point x="508" y="72"/>
      <point x="571" y="324" type="curve" smooth="yes"/>
      <point x="626" y="545"/>
      <point x="585" y="670"/>
      <point x="433" y="670" type="curve" smooth="yes"/>
      <point x="310" y="670"/>
      <point x="196" y="590"/>
      <point x="162" y="457" type="curve" smooth="yes"/>
      <point x="129" y="321"/>
      <point x="192" y="256"/>
      <point x="318" y="256" type="curve" smooth="yes"/>
      <point x="375" y="256"/>
      <point x="471" y="280"/>
      <point x="528" y="298" type="curve"/>
      <point x="478" y="106"/>
      <point x="382" y="25"/>
      <point x="251" y="25" type="curve" smooth="yes"/>
      <point x="195" y="25"/>
      <point x="127" y="36"/>
      <point x="92" y="44" type="curve"/>
      <point x="78" y="12" type="line"/>
      <point x="117" y="3"/>
      <point x="188" y="-9"/>
    </contour>
    <contour>
      <point x="329" y="290" type="curve" smooth="yes"/>
      <point x="222" y="290"/>
      <point x="172" y="343"/>
      <point x="200" y="457" type="curve" smooth="yes"/>
      <point x="228" y="569"/>
      <point x="319" y="636"/>
      <point x="424" y="636" type="curve" smooth="yes"/>
      <point x="554" y="636"/>
      <point x="582" y="520"/>
      <point x="538" y="333" type="curve"/>
      <point x="479" y="315"/>
      <point x="382" y="290"/>
    </contour>
  </outline>
</glyph>
<glyph name="equal" format="2">
  <advance width="560"/>
  <unicode hex="003D"/>
  <outline>
    <contour>
      <point x="126" y="318" type="line"/>
      <point x="550" y="318" type="line"/>
      <point x="550" y="352" type="line"/>
      <point x="126" y="352" type="line"/>
    </contour>
    <contour>
      <point x="126" y="149" type="line"/>
      <point x="550" y="149" type="line"/>
      <point x="550" y="183" type="line"/>
      <point x="126" y="183" type="line"/>
    </contour>
  </outline>
</glyph>
<glyph name="at" format="2">
  <advance width="916"/>
  <unicode hex="0040"/>
  <outline>
    <contour>
      <point x="425" y="-197" type="curve" smooth="yes"/>
      <point x="458" y="-197"/>
      <point x="524" y="-192"/>
      <point x="564" y="-188" type="curve"/>
      <point x="569" y="-152" type="line"/>
      <point x="526" y="-156"/>
      <point x="460" y="-162"/>
      <point x="433" y="-162" type="curve" smooth="yes"/>
      <point x="124" y="-162"/>
      <point x="97" y="29"/>
      <point x="154" y="261" type="curve" smooth="yes"/>
      <point x="231" y="574"/>
      <point x="372" y="682"/>
      <point x="633" y="682" type="curve" smooth="yes"/>
      <point x="923" y="682"/>
      <point x="951" y="515"/>
      <point x="904" y="307" type="curve" smooth="yes"/>
      <point x="846" y="53"/>
      <point x="789" y="24"/>
      <point x="715" y="24" type="curve" smooth="yes"/>
      <point x="676" y="24"/>
      <point x="654" y="27"/>
      <point x="654" y="72" type="curve" smooth="yes"/>
      <point x="654" y="136"/>
      <point x="728" y="438"/>
      <point x="741" y="489" type="curve"/>
      <point x="701" y="497"/>
      <point x="615" y="509"/>
      <point x="579" y="509" type="curve" smooth="yes"/>
      <point x="441" y="509"/>
      <point x="359" y="401"/>
      <point x="324" y="198" type="curve" smooth="yes"/>
      <point x="311" y="120"/>
      <point x="290" y="-10"/>
      <point x="428" y="-9" type="curve" smooth="yes"/>
      <point x="491" y="-9"/>
      <point x="580" y="34"/>
      <point x="620" y="54" type="curve"/>
      <point x="622" y="5"/>
      <point x="656" y="-10"/>
      <point x="708" y="-10" type="curve" smooth="yes"/>
      <point x="802" y="-10"/>
      <point x="873" y="16"/>
      <point x="938" y="298" type="curve" smooth="yes"/>
      <point x="990" y="526"/>
      <point x="951" y="717"/>
      <point x="641" y="717" type="curve" smooth="yes"/>
      <point x="347" y="717"/>
      <point x="194" y="598"/>
      <point x="115" y="261" type="curve" smooth="yes"/>
      <point x="67" y="56"/>
      <point x="63" y="-197"/>
    </contour>
    <contour>
      <point x="435" y="27" type="curve" smooth="yes"/>
      <point x="341" y="27"/>
      <point x="343" y="119"/>
      <point x="359" y="197" type="curve" smooth="yes"/>
      <point x="396" y="376"/>
      <point x="452" y="477"/>
      <point x="574" y="477" type="curve" smooth="yes"/>
      <point x="623" y="477"/>
      <point x="672" y="469"/>
      <point x="700" y="462" type="curve"/>
      <point x="668" y="332"/>
      <point x="623" y="122"/>
      <point x="620" y="88" type="curve"/>
      <point x="578" y="66"/>
      <point x="499" y="27"/>
    </contour>
  </outline>
</glyph>
<glyph name="G" format="2">
  <advance width="575"/>
  <unicode hex="0047"/>
  <outline>
    <contour>
      <point x="318" y="-9" type="curve" smooth="yes"/>
      <point x="384" y="-9"/>
      <point x="467" y="7"/>
      <point x="511" y="19" type="curve"/>
      <point x="587" y="346" type="line"/>
      <point x="419" y="346" type="line"/>
      <point x="411" y="313" type="line"/>
      <point x="543" y="313" type="line"/>
      <point x="481" y="46" type="line"/>
      <point x="443" y="37"/>
      <point x="373" y="24"/>
      <point x="320" y="24" type="curve" smooth="yes"/>
      <point x="215" y="24"/>
      <point x="159" y="70"/>
      <point x="159" y="175" type="curve" smooth="yes"/>
      <point x="159" y="385"/>
      <point x="253" y="676"/>
      <point x="463" y="676" type="curve" smooth="yes"/>
      <point x="529" y="676"/>
      <point x="611" y="663"/>
      <point x="655" y="654" type="curve"/>
      <point x="665" y="684" type="line"/>
      <point x="622" y="695"/>
      <point x="540" y="709"/>
      <point x="471" y="709" type="curve" smooth="yes"/>
      <point x="228" y="709"/>
      <point x="121" y="414"/>
      <point x="121" y="175" type="curve" smooth="yes"/>
      <point x="121" y="49"/>
      <point x="192" y="-9"/>
    </contour>
  </outline>
</glyph>
<glyph name="L" format="2">
  <advance width="441"/>
  <unicode hex="004C"/>
  <outline>
    <contour>
      <point x="86" y="0" type="line"/>
      <point x="432" y="0" type="line"/>
      <point x="440" y="33" type="line"/>
      <point x="130" y="33" type="line"/>
      <point x="284" y="700" type="line"/>
      <point x="248" y="700" type="line"/>
    </contour>
  </outline>
</glyph>
<glyph name="M" format="2">
  <advance width="774"/>
  <unicode hex="004D"/>
  <outline>
    <contour>
      <point x="86" y="0" type="line"/>
      <point x="122" y="0" type="line"/>
      <point x="276" y="667" type="line"/>
      <point x="290" y="667" type="line"/>
      <point x="366" y="21" type="line"/>
      <point x="412" y="21" type="line"/>
      <point x="794" y="667" type="line"/>
      <point x="807" y="667" type="line"/>
      <point x="652" y="0" type="line"/>
      <point x="688" y="0" type="line"/>
      <point x="850" y="700" type="line"/>
      <point x="777" y="700" type="line"/>
      <point x="393" y="54" type="line"/>
      <point x="321" y="700" type="line"/>
      <point x="248" y="700" type="line"/>
    </contour>
  </outline>
</glyph>
<glyph name="N" format="2">
  <advance width="617"/>
  <unicode hex="004E"/>
  <outline>
    <contour>
      <point x="86" y="0" type="line"/>
      <point x="122" y="0" type="line"/>
      <point x="276" y="667" type="line"/>
      <point x="301" y="667" type="line"/>
      <point x="452" y="0" type="line"/>
      <point x="531" y="0" type="line"/>
      <point x="693" y="700" type="line"/>
      <point x="657" y="700" type="line"/>
      <point x="503" y="33" type="line"/>
      <point x="479" y="33" type="line"/>
      <point x="329" y="700" type="line"/>
      <point x="248" y="700" type="line"/>
    </contour>
  </outline>
</glyph>
<glyph name="Q" format="2">
  <advance width="636"/>
  <unicode hex="0051"/>
  <outline>
    <contour>
      <point x="467" y="-139" type="line"/>
      <point x="501" y="-128" type="line"/>
      <point x="451" y="27" type="line"/>
      <point x="417" y="16" type="line"/>
    </contour>
    <component base="O"/>
  </outline>
</glyph>
<glyph name="T" format="2">
  <advance width="477"/>
  <unicode hex="0054"/>
  <outline>
    <contour>
      <point x="219" y="0" type="line"/>
      <point x="255" y="0" type="line"/>
      <point x="409" y="667" type="line"/>
      <point x="618" y="667" type="line"/>
      <point x="626" y="700" type="line"/>
      <point x="172" y="700" type="line"/>
      <point x="164" y="667" type="line"/>
      <point x="373" y="667" type="line"/>
    </contour>
  </outline>
</glyph>
<glyph name="U" format="2">
  <advance width="593"/>
  <unicode hex="0055"/>
  <outline>
    <contour>
      <point x="311" y="-9" type="curve" smooth="yes"/>
      <point x="459" y="-9"/>
      <point x="526" y="64"/>
      <point x="557" y="197" type="curve" smooth="yes"/>
      <point x="673" y="700" type="line"/>
      <point x="637" y="700" type="line"/>
      <point x="521" y="198" type="line" smooth="yes"/>
      <point x="495" y="85"/>
      <point x="437" y="25"/>
      <point x="313" y="25" type="curve" smooth="yes"/>
      <point x="216" y="25"/>
      <point x="155" y="57"/>
      <point x="155" y="130" type="curve" smooth="yes"/>
      <point x="155" y="151"/>
      <point x="159" y="182"/>
      <point x="165" y="207" type="curve" smooth="yes"/>
      <point x="279" y="700" type="line"/>
      <point x="243" y="700" type="line"/>
      <point x="129" y="207" type="line" smooth="yes"/>
      <point x="123" y="183"/>
      <point x="119" y="149"/>
      <point x="119" y="129" type="curve" smooth="yes"/>
      <point x="119" y="34"/>
      <point x="195" y="-9"/>
    </contour>
  </outline>
</glyph>
<glyph name="W" format="2">
  <advance width="805"/>
  <unicode hex="0057"/>
  <outline>
    <contour>
      <point x="171" y="0" type="line"/>
      <point x="262" y="0" type="line"/>
      <point x="544" y="621" type="line"/>
      <point x="534" y="0" type="line"/>
      <point x="623" y="0" type="line"/>
      <point x="925" y="700" type="line"/>
      <point x="889" y="700" type="line"/>
      <point x="601" y="33" type="line"/>
      <point x="568" y="33" type="line"/>
      <point x="577" y="690" type="line"/>
      <point x="539" y="690" type="line"/>
      <point x="241" y="33" type="line"/>
      <point x="206" y="33" type="line"/>
      <point x="231" y="700" type="line"/>
      <point x="195" y="700" type="line"/>
    </contour>
  </outline>
</glyph>
<glyph name="Z" format="2">
  <advance width="498"/>
  <unicode hex="005A"/>
  <outline>
    <contour>
      <point x="39" y="0" type="line"/>
      <point x="454" y="0" type="line"/>
      <point x="462" y="33" type="line"/>
      <point x="83" y="33" type="line"/>
      <point x="89" y="58" type="line"/>
      <point x="601" y="622" type="line"/>
      <point x="619" y="700" type="line"/>
      <point x="204" y="700" type="line"/>
      <point x="196" y="667" type="line"/>
      <point x="575" y="667" type="line"/>
      <point x="568" y="638" type="line"/>
      <point x="56" y="74" type="line"/>
    </contour>
  </outline>
</glyph>
<glyph name="bracketright" format="2">
  <advance width="296"/>
  <unicode hex="005D"/>
  <outline>
    <contour>
      <point x="390" y="748" type="line"/>
      <point x="218" y="748" type="line"/>
      <point x="209" y="715" type="line"/>
      <point x="348" y="715" type="line"/>
      <point x="159" y="-88" type="line"/>
      <point x="20" y="-88" type="line"/>
      <point x="13" y="-121" type="line"/>
      <point x="186" y="-121" type="line"/>
    </contour>
  </outline>
</glyph>
<glyph name="grave" format="2">
  <advance width="518"/>
  <unicode hex="0060"/>
  <outline>
    <contour>
      <point x="464" y="604" type="line"/>
      <point x="482" y="626" type="line"/>
      <point x="322" y="721" type="line"/>
      <point x="304" y="696" type="line"/>
    </contour>
  </outline>
</glyph>
<glyph name="a" format="2">
  <advance width="482"/>
  <unicode hex="0061"/>
  <outline>
    <contour>
      <point x="215" y="-9" type="curve" smooth="yes"/>
      <point x="283" y="-9"/>
      <point x="363" y="68"/>
      <point x="404" y="126" type="curve"/>
      <point x="400" y="109"/>
      <point x="389" y="44"/>
      <point x="382" y="-1" type="curve"/>
      <point x="415" y="1" type="line"/>
      <point x="421" y="43"/>
      <point x="433" y="116"/>
      <point x="444" y="163" type="curve" smooth="yes"/>
      <point x="520" y="489" type="line"/>
      <point x="469" y="498"/>
      <point x="387" y="509"/>
      <point x="345" y="509" type="curve" smooth="yes"/>
      <point x="185" y="509"/>
      <point x="95" y="287"/>
      <point x="95" y="118" type="curve" smooth="yes"/>
      <point x="95" y="35"/>
      <point x="134" y="-9"/>
    </contour>
    <contour>
      <point x="222" y="24" type="curve" smooth="yes"/>
      <point x="156" y="24"/>
      <point x="132" y="58"/>
      <point x="132" y="118" type="curve" smooth="yes"/>
      <point x="132" y="265"/>
      <point x="205" y="477"/>
      <point x="345" y="477" type="curve" smooth="yes"/>
      <point x="390" y="477"/>
      <point x="448" y="468"/>
      <point x="479" y="462" type="curve"/>
      <point x="414" y="182" type="line"/>
      <point x="365" y="114"/>
      <point x="279" y="24"/>
    </contour>
  </outline>
</glyph>
<glyph name="f" format="2">
  <advance width="297"/>
  <unicode hex="0066"/>
  <outline>
    <contour>
      <point x="37" y="-230" type="line"/>
      <point x="66" y="-230" type="line"/>
      <point x="125" y="0" type="line"/>
      <point x="234" y="468" type="line"/>
      <point x="385" y="468" type="line"/>
      <point x="394" y="500" type="line"/>
      <point x="240" y="500" type="line"/>
      <point x="254" y="557" type="line" smooth="yes"/>
      <point x="281" y="665"/>
      <point x="309" y="707"/>
      <point x="374" y="707" type="curve" smooth="yes"/>
      <point x="399" y="707"/>
      <point x="432" y="703"/>
      <point x="450" y="700" type="curve"/>
      <point x="458" y="731" type="line"/>
      <point x="439" y="734"/>
      <point x="405" y="739"/>
      <point x="381" y="739" type="curve" smooth="yes"/>
      <point x="296" y="739"/>
      <point x="251" y="692"/>
      <point x="219" y="559" type="curve" smooth="yes"/>
      <point x="205" y="500" type="line"/>
      <point x="142" y="500" type="line"/>
      <point x="134" y="468" type="line"/>
      <point x="198" y="468" type="line"/>
    </contour>
  </outline>
</glyph>
<glyph name="h" format="2">
  <advance width="489"/>
  <unicode hex="0068"/>
  <outline>
    <contour>
      <point x="74" y="0" type="line"/>
      <point x="109" y="0" type="line"/>
      <point x="185" y="328" type="line"/>
      <point x="230" y="392"/>
      <point x="314" y="476"/>
      <point x="378" y="476" type="curve" smooth="yes"/>
      <point x="435" y="476"/>
      <point x="464" y="444"/>
      <point x="464" y="390" type="curve" smooth="yes"/>
      <point x="464" y="348"/>
      <point x="454" y="295"/>
      <point x="445" y="258" type="curve" smooth="yes"/>
      <point x="385" y="0" type="line"/>
      <point x="419" y="0" type="line"/>
      <point x="479" y="257" type="line" smooth="yes"/>
      <point x="489" y="299"/>
      <point x="499" y="347"/>
      <point x="499" y="393" type="curve" smooth="yes"/>
      <point x="499" y="465"/>
      <point x="456" y="509"/>
      <point x="384" y="509" type="curve" smooth="yes"/>
      <point x="312" y="509"/>
      <point x="236" y="438"/>
      <point x="198" y="385" type="curve"/>
      <point x="278" y="730" type="line"/>
      <point x="243" y="730" type="line"/>
    </contour>
  </outline>
</glyph>
<glyph name="j" format="2">
  <advance width="182"/>
  <unicode hex="006A"/>
  <outline>
    <contour>
      <point x="-87" y="-239" type="line"/>
      <point x="56" y="-171"/>
      <point x="72" y="-154"/>
      <point x="108" y="0" type="curve" smooth="yes"/>
      <point x="224" y="500" type="line"/>
      <point x="189" y="500" type="line"/>
      <point x="73" y="0" type="line" smooth="yes"/>
      <point x="43" y="-130"/>
      <point x="31" y="-144"/>
      <point x="-99" y="-209" type="curve"/>
    </contour>
    <contour>
      <point x="223" y="642" type="line"/>
      <point x="258" y="642" type="line"/>
      <point x="271" y="700" type="line"/>
      <point x="236" y="700" type="line"/>
    </contour>
  </outline>
</glyph>
<glyph name="l" format="2">
  <advance width="195"/>
  <unicode hex="006C"/>
  <outline>
    <contour>
      <point x="80" y="0" type="line"/>
      <point x="115" y="0" type="line"/>
      <point x="284" y="730" type="line"/>
      <point x="249" y="730" type="line"/>
    </contour>
  </outline>
</glyph>
<glyph name="m" format="2">
  <advance width="774"/>
  <unicode hex="006D"/>
  <outline>
    <contour>
      <point x="73" y="0" type="line"/>
      <point x="108" y="0" type="line"/>
      <point x="185" y="330" type="line"/>
      <point x="229" y="393"/>
      <point x="312" y="476"/>
      <point x="377" y="476" type="curve" smooth="yes"/>
      <point x="431" y="476"/>
      <point x="462" y="444"/>
      <point x="462" y="390" type="curve" smooth="yes"/>
      <point x="462" y="352"/>
      <point x="452" y="295"/>
      <point x="443" y="258" type="curve" smooth="yes"/>
      <point x="383" y="0" type="line"/>
      <point x="418" y="0" type="line"/>
      <point x="478" y="257" type="line" smooth="yes"/>
      <point x="490" y="308"/>
      <point x="496" y="349"/>
      <point x="496" y="365" type="curve"/>
      <point x="534" y="413"/>
      <point x="605" y="476"/>
      <point x="662" y="476" type="curve" smooth="yes"/>
      <point x="716" y="476"/>
      <point x="748" y="444"/>
      <point x="748" y="390" type="curve" smooth="yes"/>
      <point x="748" y="348"/>
      <point x="738" y="295"/>
      <point x="729" y="258" type="curve" smooth="yes"/>
      <point x="669" y="0" type="line"/>
      <point x="704" y="0" type="line"/>
      <point x="764" y="257" type="line" smooth="yes"/>
      <point x="773" y="297"/>
      <point x="784" y="346"/>
      <point x="784" y="393" type="curve" smooth="yes"/>
      <point x="784" y="465"/>
      <point x="741" y="509"/>
      <point x="669" y="509" type="curve" smooth="yes"/>
      <point x="605" y="509"/>
      <point x="532" y="451"/>
      <point x="495" y="408" type="curve"/>
      <point x="494" y="451"/>
      <point x="463" y="509"/>
      <point x="383" y="509" type="curve" smooth="yes"/>
      <point x="311" y="509"/>
      <point x="235" y="439"/>
      <point x="198" y="387" type="curve"/>
      <point x="224" y="500" type="line"/>
      <point x="189" y="500" type="line"/>
    </contour>
  </outline>
</glyph>
<glyph name="q" format="2">
  <advance width="479"/>
  <unicode hex="0071"/>
  <outline>
    <contour>
      <point x="321" y="-220" type="line"/>
      <point x="355" y="-220" type="line"/>
      <point x="519" y="489" type="line"/>
      <point x="473" y="498"/>
      <point x="392" y="509"/>
      <point x="342" y="509" type="curve" smooth="yes"/>
      <point x="183" y="509"/>
      <point x="94" y="281"/>
      <point x="94" y="120" type="curve" smooth="yes"/>
      <point x="94" y="39"/>
      <point x="132" y="-9"/>
      <point x="213" y="-9" type="curve" smooth="yes"/>
      <point x="283" y="-9"/>
      <point x="359" y="61"/>
      <point x="397" y="113" type="curve"/>
    </contour>
    <contour>
      <point x="222" y="24" type="curve" smooth="yes"/>
      <point x="157" y="24"/>
      <point x="131" y="57"/>
      <point x="131" y="122" type="curve" smooth="yes"/>
      <point x="131" y="266"/>
      <point x="207" y="477"/>
      <point x="342" y="477" type="curve" smooth="yes"/>
      <point x="392" y="477"/>
      <point x="449" y="468"/>
      <point x="478" y="462" type="curve"/>
      <point x="411" y="171" type="line"/>
      <point x="365" y="108"/>
      <point x="282" y="24"/>
    </contour>
  </outline>
</glyph>
<glyph name="r" format="2">
  <advance width="304"/>
  <unicode hex="0072"/>
  <outline>
    <contour>
      <point x="73" y="0" type="line"/>
      <point x="109" y="0" type="line"/>
      <point x="199" y="389" type="line"/>
      <point x="252" y="419"/>
      <point x="342" y="463"/>
      <point x="396" y="475" type="curve"/>
      <point x="404" y="510" type="line"/>
      <point x="333" y="493"/>
      <point x="250" y="451"/>
      <point x="207" y="424" type="curve"/>
      <point x="224" y="500" type="line"/>
      <point x="190" y="500" type="line"/>
    </contour>
  </outline>
</glyph>
<glyph name="t" format="2">
  <advance width="311"/>
  <unicode hex="0074"/>
  <outline>
    <contour>
      <point x="218" y="-9" type="curve" smooth="yes"/>
      <point x="244" y="-9"/>
      <point x="283" y="-4"/>
      <point x="305" y="-1" type="curve"/>
      <point x="307" y="30" type="line"/>
      <point x="282" y="27"/>
      <point x="242" y="23"/>
      <point x="223" y="23" type="curve" smooth="yes"/>
      <point x="178" y="23"/>
      <point x="159" y="47"/>
      <point x="159" y="82" type="curve" smooth="yes"/>
      <point x="159" y="109"/>
      <point x="166" y="148"/>
      <point x="174" y="182" type="curve" smooth="yes"/>
      <point x="241" y="468" type="line"/>
      <point x="404" y="468" type="line"/>
      <point x="412" y="500" type="line"/>
      <point x="249" y="500" type="line"/>
      <point x="289" y="662" type="line"/>
      <point x="254" y="662" type="line"/>
      <point x="215" y="500" type="line"/>
      <point x="141" y="500" type="line"/>
      <point x="133" y="468" type="line"/>
      <point x="206" y="468" type="line"/>
      <point x="139" y="182" type="line" smooth="yes"/>
      <point x="131" y="150"/>
      <point x="122" y="111"/>
      <point x="122" y="77" type="curve" smooth="yes"/>
      <point x="122" y="18"/>
      <point x="159" y="-9"/>
    </contour>
  </outline>
</glyph>
<glyph name="u" format="2">
  <advance width="488"/>
  <unicode hex="0075"/>
  <outline>
    <contour>
      <point x="220" y="-9" type="curve" smooth="yes"/>
      <point x="292" y="-9"/>
      <point x="368" y="61"/>
      <point x="405" y="113" type="curve"/>
      <point x="379" y="0" type="line"/>
      <point x="414" y="0" type="line"/>
      <point x="530" y="500" type="line"/>
      <point x="495" y="500" type="line"/>
      <point x="418" y="170" type="line"/>
      <point x="374" y="107"/>
      <point x="291" y="24"/>
      <point x="226" y="24" type="curve" smooth="yes"/>
      <point x="172" y="24"/>
      <point x="140" y="56"/>
      <point x="140" y="110" type="curve" smooth="yes"/>
      <point x="140" y="152"/>
      <point x="150" y="205"/>
      <point x="159" y="242" type="curve" smooth="yes"/>
      <point x="219" y="500" type="line"/>
      <point x="185" y="500" type="line"/>
      <point x="124" y="240" type="line" smooth="yes"/>
      <point x="115" y="200"/>
      <point x="105" y="153"/>
      <point x="105" y="107" type="curve" smooth="yes"/>
      <point x="105" y="35"/>
      <point x="149" y="-9"/>
    </contour>
  </outline>
</glyph>
<glyph name="v" format="2">
  <advance width="448"/>
  <unicode hex="0076"/>
  <outline>
    <contour>
      <point x="172" y="0" type="line"/>
      <point x="266" y="0" type="line"/>
      <point x="532" y="500" type="line"/>
      <point x="494" y="500" type="line"/>
      <point x="246" y="32" type="line"/>
      <point x="206" y="32" type="line"/>
      <point x="183" y="500" type="line"/>
      <point x="147" y="500" type="line"/>
    </contour>
  </outline>
</glyph>
<glyph name="w" format="2">
  <advance width="710"/>
  <unicode hex="0077"/>
  <outline>
    <contour>
      <point x="157" y="0" type="line"/>
      <point x="229" y="0" type="line"/>
      <point x="456" y="447" type="line"/>
      <point x="473" y="0" type="line"/>
      <point x="547" y="0" type="line"/>
      <point x="789" y="500" type="line"/>
      <point x="752" y="500" type="line"/>
      <point x="525" y="32" type="line"/>
      <point x="508" y="32" type="line"/>
      <point x="488" y="490" type="line"/>
      <point x="443" y="490" type="line"/>
      <point x="207" y="32" type="line"/>
      <point x="191" y="32" type="line"/>
      <point x="185" y="500" type="line"/>
      <point x="150" y="500" type="line"/>
    </contour>
  </outline>
</glyph>
<glyph name="x" format="2">
  <advance width="411"/>
  <unicode hex="0078"/>
  <outline>
    <contour>
      <point x="27" y="0" type="line"/>
      <point x="70" y="0" type="line"/>
      <point x="258" y="223" type="line"/>
      <point x="341" y="0" type="line"/>
      <point x="380" y="0" type="line"/>
      <point x="286" y="247" type="line"/>
      <point x="502" y="500" type="line"/>
      <point x="459" y="500" type="line"/>
      <point x="269" y="273" type="line"/>
      <point x="183" y="500" type="line"/>
      <point x="145" y="500" type="line"/>
      <point x="240" y="250" type="line"/>
    </contour>
  </outline>
</glyph>
<glyph name="braceleft" format="2">
  <advance width="329"/>
  <unicode hex="007B"/>
  <outline>
    <contour>
      <point x="256" y="-123" type="curve"/>
      <point x="266" y="-87" type="line"/>
      <point x="191" y="-87"/>
      <point x="157" y="-60"/>
      <point x="157" y="-4" type="curve" smooth="yes"/>
      <point x="157" y="57"/>
      <point x="207" y="182"/>
      <point x="207" y="224" type="curve" smooth="yes" name="hr00"/>
      <point x="207" y="276"/>
      <point x="177" y="299"/>
      <point x="143" y="311" type="curve"/>
      <point x="215" y="334"/>
      <point x="246" y="365"/>
      <point x="265" y="453" type="curve" smooth="yes"/>
      <point x="268" y="465"/>
      <point x="282" y="549"/>
      <point x="286" y="568" type="curve" smooth="yes"/>
      <point x="305" y="660"/>
      <point x="347" y="708"/>
      <point x="456" y="713" type="curve"/>
      <point x="462" y="749" type="line"/>
      <point x="348" y="744"/>
      <point x="294" y="697"/>
      <point x="261" y="596" type="curve" smooth="yes"/>
      <point x="250" y="563"/>
      <point x="237" y="480"/>
      <point x="233" y="461" type="curve" smooth="yes"/>
      <point x="218" y="385"/>
      <point x="196" y="352"/>
      <point x="104" y="327" type="curve"/>
      <point x="96" y="292" type="line"/>
      <point x="146" y="279"/>
      <point x="172" y="261"/>
      <point x="172" y="213" type="curve" smooth="yes"/>
      <point x="172" y="177"/>
      <point x="122" y="49"/>
      <point x="122" y="-14" type="curve" smooth="yes"/>
      <point x="122" y="-84"/>
      <point x="162" y="-119"/>
    </contour>
  </outline>
</glyph>
<glyph name="exclamdown" format="2">
  <advance width="189"/>
  <unicode hex="00A1"/>
  <outline>
    <contour>
      <point x="178" y="289" type="line"/>
      <point x="150" y="289" type="line"/>
      <point x="32" y="-200" type="line"/>
      <point x="65" y="-200" type="line"/>
    </contour>
    <contour>
      <point x="224" y="500" type="line"/>
      <point x="188" y="500" type="line"/>
      <point x="169" y="417" type="line"/>
      <point x="205" y="417" type="line"/>
    </contour>
  </outline>
</glyph>
<glyph name="currency" format="2">
  <advance width="560"/>
  <unicode hex="00A4"/>
  <outline>
    <contour>
      <point x="217" y="132" type="curve" smooth="yes"/>
      <point x="283" y="65"/>
      <point x="391" y="65"/>
      <point x="457" y="132" type="curve" smooth="yes"/>
      <point x="524" y="198"/>
      <point x="524" y="306"/>
      <point x="457" y="372" type="curve" smooth="yes"/>
      <point x="391" y="439"/>
      <point x="283" y="439"/>
      <point x="217" y="372" type="curve" smooth="yes"/>
      <point x="150" y="306"/>
      <point x="150" y="198"/>
    </contour>
    <contour>
      <point x="160" y="49" type="line"/>
      <point x="254" y="144" type="line"/>
      <point x="229" y="169" type="line"/>
      <point x="134" y="75" type="line"/>
    </contour>
    <contour>
      <point x="242" y="157" type="curve" smooth="yes"/>
      <point x="191" y="209"/>
      <point x="191" y="295"/>
      <point x="242" y="347" type="curve" smooth="yes"/>
      <point x="294" y="398"/>
      <point x="380" y="398"/>
      <point x="432" y="347" type="curve" smooth="yes"/>
      <point x="483" y="295"/>
      <point x="483" y="209"/>
      <point x="432" y="157" type="curve" smooth="yes"/>
      <point x="380" y="106"/>
      <point x="294" y="106"/>
    </contour>
    <contour>
      <point x="229" y="335" type="line"/>
      <point x="254" y="360" type="line"/>
      <point x="160" y="455" type="line"/>
      <point x="134" y="429" type="line"/>
    </contour>
    <contour>
      <point x="514" y="49" type="line"/>
      <point x="540" y="75" type="line"/>
      <point x="445" y="169" type="line"/>
      <point x="420" y="144" type="line"/>
    </contour>
    <contour>
      <point x="445" y="335" type="line"/>
      <point x="540" y="429" type="line"/>
      <point x="514" y="455" type="line"/>
      <point x="420" y="360" type="line"/>
    </contour>
  </outline>
</glyph>
<glyph name="brokenbar" format="2">
  <advance width="306"/>
  <unicode hex="00A6"/>
  <outline>
    <contour>
      <point x="193" y="354" type="line"/>
      <point x="228" y="354" type="line"/>
      <point x="228" y="730" type="line"/>
      <point x="193" y="730" type="line"/>
    </contour>
    <contour>
      <point x="193" y="-230" type="line"/>
      <point x="228" y="-230" type="line"/>
      <point x="228" y="146" type="line"/>
      <point x="193" y="146" type="line"/>
    </contour>
  </outline>
</glyph>
<glyph name="section" format="2">
  <advance width="459"/>
  <unicode hex="00A7"/>
  <outline>
    <contour>
      <point x="201" y="-122" type="curve" smooth="yes"/>
      <point x="361" y="-122"/>
      <point x="407" y="20"/>
      <point x="407" y="70" type="curve" smooth="yes"/>
      <point x="407" y="95"/>
      <point x="406" y="110"/>
      <point x="390" y="129" type="curve"/>
      <point x="421" y="169"/>
      <point x="463" y="241"/>
      <point x="463" y="295" type="curve" smooth="yes"/>
      <point x="463" y="343"/>
      <point x="431" y="380"/>
      <point x="332" y="396" type="curve" smooth="yes"/>
      <point x="252" y="409"/>
      <point x="222" y="418"/>
      <point x="222" y="476" type="curve" smooth="yes"/>
      <point x="222" y="562"/>
      <point x="274" y="623"/>
      <point x="380" y="623" type="curve" smooth="yes"/>
      <point x="413" y="623"/>
      <point x="480" y="616"/>
      <point x="522" y="610" type="curve"/>
      <point x="532" y="646" type="line"/>
      <point x="495" y="652"/>
      <point x="430" y="659"/>
      <point x="388" y="659" type="curve" smooth="yes"/>
      <point x="252" y="659"/>
      <point x="181" y="568"/>
      <point x="181" y="474" type="curve" smooth="yes"/>
      <point x="181" y="434"/>
      <point x="188" y="422"/>
      <point x="201" y="403" type="curve"/>
      <point x="166" y="371"/>
      <point x="119" y="306"/>
      <point x="119" y="246" type="curve" smooth="yes"/>
      <point x="119" y="191"/>
      <point x="150" y="152"/>
      <point x="256" y="138" type="curve" smooth="yes"/>
      <point x="349" y="125"/>
      <point x="368" y="109"/>
      <point x="368" y="66" type="curve" smooth="yes"/>
      <point x="368" y="5"/>
      <point x="315" y="-87"/>
      <point x="209" y="-87" type="curve" smooth="yes"/>
      <point x="172" y="-87"/>
      <point x="100" y="-79"/>
      <point x="56" y="-73" type="curve"/>
      <point x="45" y="-109" type="line"/>
      <point x="88" y="-115"/>
      <point x="159" y="-122"/>
    </contour>
    <contour>
      <point x="366" y="147" type="curve"/>
      <point x="342" y="161"/>
      <point x="311" y="168"/>
      <point x="271" y="174" type="curve" smooth="yes"/>
      <point x="179" y="187"/>
      <point x="156" y="212"/>
      <point x="156" y="259" type="curve" smooth="yes"/>
      <point x="156" y="302"/>
      <point x="195" y="357"/>
      <point x="225" y="386" type="curve"/>
      <point x="234" y="378"/>
      <point x="276" y="367"/>
      <point x="318" y="360" type="curve" smooth="yes"/>
      <point x="400" y="347"/>
      <point x="428" y="324"/>
      <point x="428" y="286" type="curve" smooth="yes"/>
      <point x="428" y="245"/>
      <point x="393" y="183"/>
    </contour>
  </outline>
</glyph>
<glyph name="dieresis" format="2">
  <advance width="791"/>
  <unicode hex="00A8"/>
  <outline>
    <contour>
      <point x="435" y="633" type="line"/>
      <point x="462" y="633" type="line"/>
      <point x="477" y="698" type="line"/>
      <point x="448" y="698" type="line"/>
    </contour>
    <contour>
      <point x="260" y="633" type="line"/>
      <point x="289" y="633" type="line"/>
      <point x="304" y="698" type="line"/>
      <point x="275" y="698" type="line"/>
    </contour>
  </outline>
</glyph>
<glyph name="logicalnot" format="2">
  <advance width="560"/>
  <unicode hex="00AC"/>
  <outline>
    <contour>
      <point x="516" y="126" type="line"/>
      <point x="552" y="126" type="line"/>
      <point x="552" y="332" type="line"/>
      <point x="130" y="332" type="line"/>
      <point x="130" y="298" type="line"/>
      <point x="516" y="298" type="line"/>
    </contour>
  </outline>
</glyph>
<glyph name="mu" format="2">
  <advance width="612"/>
  <unicode hex="00B5"/>
  <outline>
    <contour>
      <point x="159" y="-145" type="line"/>
      <point x="193" y="-145" type="line"/>
      <point x="309" y="355" type="line"/>
      <point x="275" y="355" type="line"/>
    </contour>
    <component base="u" xOffset="124"/>
  </outline>
</glyph>
<glyph name="paragraph" format="2">
  <advance width="551"/>
  <unicode hex="00B6"/>
  <outline>
    <contour>
      <point x="210" y="0" type="line"/>
      <point x="244" y="0" type="line"/>
      <point x="403" y="664" type="line"/>
      <point x="546" y="664" type="line"/>
      <point x="388" y="0" type="line"/>
      <point x="422" y="0" type="line"/>
      <point x="580" y="664" type="line"/>
      <point x="672" y="664" type="line"/>
      <point x="679" y="700" type="line"/>
      <point x="370" y="700" type="line" smooth="yes"/>
      <point x="241" y="700"/>
      <point x="149" y="581"/>
      <point x="149" y="481" type="curve" smooth="yes"/>
      <point x="149" y="413"/>
      <point x="192" y="350"/>
      <point x="295" y="349" type="curve"/>
    </contour>
  </outline>
</glyph>
<glyph name="periodcentered" format="2">
  <advance width="182"/>
  <unicode hex="00B7"/>
  <outline>
    <contour>
      <point x="134" y="270" type="line"/>
      <point x="172" y="270" type="line"/>
      <point x="190" y="353" type="line"/>
      <point x="152" y="353" type="line"/>
    </contour>
  </outline>
</glyph>
<glyph name="ordmasculine" format="2">
  <advance width="339"/>
  <unicode hex="00BA"/>
  <outline>
    <contour>
      <point x="257" y="383" type="curve" smooth="yes"/>
      <point x="335" y="383"/>
      <point x="379" y="428"/>
      <point x="398" y="515" type="curve" smooth="yes"/>
      <point x="403" y="538"/>
      <point x="406" y="556"/>
      <point x="406" y="580" type="curve" smooth="yes"/>
      <point x="406" y="634"/>
      <point x="376" y="658"/>
      <point x="321" y="658" type="curve" smooth="yes"/>
      <point x="243" y="658"/>
      <point x="202" y="619"/>
      <point x="178" y="522" type="curve" smooth="yes"/>
      <point x="173" y="501"/>
      <point x="171" y="482"/>
      <point x="171" y="466" type="curve" smooth="yes"/>
      <point x="171" y="411"/>
      <point x="202" y="383"/>
    </contour>
    <contour>
      <point x="264" y="419" type="curve" smooth="yes"/>
      <point x="225" y="419"/>
      <point x="206" y="435"/>
      <point x="206" y="472" type="curve" smooth="yes"/>
      <point x="206" y="486"/>
      <point x="208" y="502"/>
      <point x="213" y="522" type="curve" smooth="yes"/>
      <point x="231" y="596"/>
      <point x="260" y="622"/>
      <point x="314" y="622" type="curve" smooth="yes"/>
      <point x="353" y="622"/>
      <point x="370" y="609"/>
      <point x="370" y="573" type="curve" smooth="yes"/>
      <point x="370" y="560"/>
      <point x="369" y="543"/>
      <point x="364" y="522" type="curve" smooth="yes"/>
      <point x="346" y="447"/>
      <point x="318" y="419"/>
    </contour>
  </outline>
</glyph>
<glyph name="AE" format="2">
  <advance width="797"/>
  <unicode hex="00C6"/>
  <outline>
    <contour>
      <point x="32" y="0" type="line"/>
      <point x="67" y="0" type="line"/>
      <point x="181" y="215" type="line"/>
      <point x="421" y="215" type="line"/>
      <point x="372" y="0" type="line"/>
      <point x="749" y="0" type="line"/>
      <point x="755" y="33" type="line"/>
      <point x="414" y="33" type="line"/>
      <point x="487" y="343" type="line"/>
      <point x="774" y="343" type="line"/>
      <point x="780" y="376" type="line"/>
      <point x="493" y="376" type="line"/>
      <point x="564" y="669" type="line"/>
      <point x="907" y="667" type="line"/>
      <point x="913" y="700" type="line"/>
      <point x="402" y="700" type="line"/>
    </contour>
    <contour>
      <point x="197" y="247" type="line"/>
      <point x="418" y="667" type="line"/>
      <point x="530" y="667" type="line"/>
      <point x="428" y="247" type="line"/>
    </contour>
  </outline>
</glyph>
<glyph name="Udieresis" format="2">
  <advance width="593"/>
  <unicode hex="00DC"/>
  <outline>
    <contour>
      <point x="371" y="833" type="line"/>
      <point x="405" y="833" type="line"/>
      <point x="420" y="898" type="line"/>
      <point x="386" y="898" type="line"/>
    </contour>
    <contour>
      <point x="551" y="833" type="line"/>
      <point x="583" y="833" type="line"/>
      <point x="598" y="898" type="line"/>
      <point x="564" y="898" type="line"/>
    </contour>
    <component base="U"/>
  </outline>
</glyph>
<glyph name="edieresis" format="2">
  <advance width="452"/>
  <unicode hex="00EB"/>
  <outline>
    <contour>
      <point x="281" y="633" type="line"/>
      <point x="315" y="633" type="line"/>
      <point x="330" y="698" type="line"/>
      <point x="296" y="698" type="line"/>
    </contour>
    <contour>
      <point x="461" y="633" type="line"/>
      <point x="493" y="633" type="line"/>
      <point x="508" y="698" type="line"/>
      <point x="474" y="698" type="line"/>
    </contour>
    <component base="e"/>
  </outline>
</glyph>
<glyph name="ocircumflex" format="2">
  <advance width="493"/>
  <unicode hex="00F4"/>
  <outline>
    <contour>
      <point x="259" y="595" type="line"/>
      <point x="302" y="595" type="line"/>
      <point x="412" y="696" type="line"/>
      <point x="476" y="595" type="line"/>
      <point x="514" y="595" type="line"/>
      <point x="427" y="730" type="line"/>
      <point x="405" y="730" type="line"/>
    </contour>
    <component base="o"/>
  </outline>
</glyph>
<glyph name="ucircumflex" format="2">
  <advance width="488"/>
  <unicode hex="00FB"/>
  <outline>
    <contour>
      <point x="235" y="595" type="line"/>
      <point x="278" y="595" type="line"/>
      <point x="388" y="696" type="line"/>
      <point x="452" y="595" type="line"/>
      <point x="490" y="595" type="line"/>
      <point x="403" y="730" type="line"/>
      <point x="381" y="730" type="line"/>
    </contour>
    <component base="u"/>
  </outline>
</glyph>
<glyph name="udieresis" format="2">
  <advance width="488"/>
  <unicode hex="00FC"/>
  <outline>
    <contour>
      <point x="270" y="633" type="line"/>
      <point x="304" y="633" type="line"/>
      <point x="319" y="698" type="line"/>
      <point x="285" y="698" type="line"/>
    </contour>
    <contour>
      <point x="450" y="633" type="line"/>
      <point x="482" y="633" type="line"/>
      <point x="497" y="698" type="line"/>
      <point x="463" y="698" type="line"/>
    </contour>
    <component base="u"/>
  </outline>
</glyph>
<glyph name="thorn" format="2">
  <advance width="475"/>
  <unicode hex="00FE"/>
  <outline>
    <contour>
      <point x="19" y="-228" type="line"/>
      <point x="52" y="-228" type="line"/>
      <point x="107" y="3" type="line"/>
      <point x="107" y="1"/>
      <point x="167" y="-9"/>
      <point x="221" y="-9" type="curve" smooth="yes"/>
      <point x="364" y="-9"/>
      <point x="435" y="85"/>
      <point x="482" y="260" type="curve" smooth="yes"/>
      <point x="509" y="358"/>
      <point x="510" y="509"/>
      <point x="378" y="509" type="curve" smooth="yes"/>
      <point x="302" y="509"/>
      <point x="222" y="449"/>
      <point x="209" y="438" type="curve"/>
      <point x="279" y="728" type="line"/>
      <point x="245" y="728" type="line"/>
    </contour>
    <contour>
      <point x="227" y="27" type="curve"/>
      <point x="114" y="39" type="line"/>
      <point x="198" y="395" type="line"/>
      <point x="198" y="393"/>
      <point x="287" y="473"/>
      <point x="371" y="473" type="curve" smooth="yes"/>
      <point x="471" y="473"/>
      <point x="470" y="339"/>
      <point x="448" y="261" type="curve" smooth="yes"/>
      <point x="403" y="102"/>
      <point x="349" y="27"/>
    </contour>
  </outline>
</glyph>
<glyph name="ydieresis" format="2">
  <advance width="448"/>
  <unicode hex="00FF"/>
  <outline>
    <contour>
      <point x="248" y="633" type="line"/>
      <point x="282" y="633" type="line"/>
      <point x="297" y="698" type="line"/>
      <point x="263" y="698" type="line"/>
    </contour>
    <contour>
      <point x="428" y="633" type="line"/>
      <point x="460" y="633" type="line"/>
      <point x="475" y="698" type="line"/>
      <point x="441" y="698" type="line"/>
    </contour>
    <component base="y"/>
  </outline>
</glyph>
<glyph name="dcaron" format="2">
  <advance width="494"/>
  <unicode hex="010F"/>
  <outline>
    <contour>
      <point x="583" y="480" type="line"/>
      <point x="615" y="480" type="line"/>
      <point x="666" y="700" type="line"/>
      <point x="634" y="700" type="line"/>
    </contour>
    <component base="d"/>
  </outline>
</glyph>
<glyph name="Gcircumflex" format="2">
  <advance width="575"/>
  <unicode hex="011C"/>
  <outline>
    <contour>
      <point x="365" y="795" type="line"/>
      <point x="408" y="795" type="line"/>
      <point x="518" y="896" type="line"/>
      <point x="582" y="795" type="line"/>
      <point x="620" y="795" type="line"/>
      <point x="533" y="930" type="line"/>
      <point x="511" y="930" type="line"/>
    </contour>
    <component base="G"/>
  </outline>
</glyph>
<glyph name="Gbreve" format="2">
  <advance width="575"/>
  <unicode hex="011E"/>
  <outline>
    <contour>
      <point x="495" y="790" type="curve" smooth="yes"/>
      <point x="578" y="790"/>
      <point x="641" y="846"/>
      <point x="660" y="921" type="curve"/>
      <point x="628" y="921" type="line"/>
      <point x="614" y="867"/>
      <point x="570" y="826"/>
      <point x="507" y="826" type="curve" smooth="yes"/>
      <point x="454" y="826"/>
      <point x="430" y="857"/>
      <point x="430" y="896" type="curve" smooth="yes"/>
      <point x="430" y="904"/>
      <point x="431" y="913"/>
      <point x="433" y="921" type="curve"/>
      <point x="400" y="921" type="line"/>
      <point x="397" y="910"/>
      <point x="396" y="899"/>
      <point x="396" y="888" type="curve" smooth="yes"/>
      <point x="396" y="835"/>
      <point x="431" y="790"/>
    </contour>
    <component base="G"/>
  </outline>
</glyph>
<glyph name="Hbar" format="2">
  <advance width="645"/>
  <unicode hex="0126"/>
  <outline>
    <contour>
      <point x="96" y="0" type="line"/>
      <point x="130" y="0" type="line"/>
      <point x="207" y="334" type="line"/>
      <point x="593" y="334" type="line"/>
      <point x="516" y="0" type="line"/>
      <point x="550" y="0" type="line"/>
      <point x="711" y="700" type="line"/>
      <point x="677" y="700" type="line"/>
      <point x="601" y="370" type="line"/>
      <point x="215" y="370" type="line"/>
      <point x="291" y="700" type="line"/>
      <point x="257" y="700" type="line"/>
    </contour>
    <contour>
      <point x="126" y="517" type="line"/>
      <point x="756" y="517" type="line"/>
      <point x="766" y="553" type="line"/>
      <point x="133" y="553" type="line"/>
    </contour>
  </outline>
</glyph>
<glyph name="Iogonek" format="2">
  <advance width="208"/>
  <unicode hex="012E"/>
  <outline>
    <contour>
      <point x="86" y="0" type="line"/>
      <point x="122" y="0" type="line"/>
      <point x="284" y="700" type="line"/>
      <point x="248" y="700" type="line"/>
    </contour>
    <contour>
      <point x="37" y="-198" type="curve" smooth="yes"/>
      <point x="56" y="-198"/>
      <point x="84" y="-193"/>
      <point x="99" y="-190" type="curve"/>
      <point x="103" y="-158" type="line"/>
      <point x="87" y="-161"/>
      <point x="61" y="-165"/>
      <point x="47" y="-165" type="curve" smooth="yes"/>
      <point x="27" y="-165"/>
      <point x="15" y="-157"/>
      <point x="15" y="-141" type="curve" smooth="yes"/>
      <point x="15" y="-97"/>
      <point x="88" y="-27"/>
      <point x="122" y="0" type="curve"/>
      <point x="89" y="10" type="line"/>
      <point x="56" y="-17"/>
      <point x="-25" y="-92"/>
      <point x="-25" y="-144" type="curve" smooth="yes"/>
      <point x="-25" y="-176"/>
      <point x="-6" y="-198"/>
    </contour>
  </outline>
</glyph>
<glyph name="Lslash" format="2">
  <advance width="442"/>
  <unicode hex="0141"/>
  <outline>
    <contour>
      <point x="88" y="265" type="line"/>
      <point x="405" y="463" type="line"/>
      <point x="394" y="493" type="line"/>
      <point x="75" y="293" type="line"/>
    </contour>
    <component base="L" xOffset="2"/>
  </outline>
</glyph>
<glyph name="tcaron" format="2">
  <advance width="362"/>
  <unicode hex="0165"/>
  <outline>
    <contour>
      <point x="444" y="480" type="line"/>
      <point x="476" y="480" type="line"/>
      <point x="527" y="700" type="line"/>
      <point x="495" y="700" type="line"/>
    </contour>
    <component base="t"/>
  </outline>
</glyph>
<glyph name="tbar" format="2">
  <advance width="316"/>
  <unicode hex="0167"/>
  <outline>
    <contour>
      <point x="111" y="291" type="line"/>
      <point x="363" y="291" type="line"/>
      <point x="372" y="323" type="line"/>
      <point x="119" y="323" type="line"/>
    </contour>
    <component base="t" xOffset="3"/>
  </outline>
</glyph>
<glyph name="uogonek" format="2">
  <advance width="488"/>
  <unicode hex="0173"/>
  <outline>
    <contour>
      <point x="220" y="-9" type="curve" smooth="yes"/>
      <point x="292" y="-9"/>
      <point x="368" y="61"/>
      <point x="405" y="113" type="curve"/>
      <point x="379" y="0" type="line"/>
      <point x="414" y="0" type="line"/>
      <point x="530" y="500" type="line"/>
      <point x="495" y="500" type="line"/>
      <point x="418" y="170" type="line"/>
      <point x="374" y="107"/>
      <point x="291" y="24"/>
      <point x="226" y="24" type="curve" smooth="yes"/>
      <point x="172" y="24"/>
      <point x="140" y="56"/>
      <point x="140" y="110" type="curve" smooth="yes"/>
      <point x="140" y="152"/>
      <point x="150" y="205"/>
      <point x="159" y="242" type="curve" smooth="yes"/>
      <point x="219" y="500" type="line"/>
      <point x="185" y="500" type="line"/>
      <point x="124" y="240" type="line" smooth="yes"/>
      <point x="115" y="200"/>
      <point x="105" y="153"/>
      <point x="105" y="107" type="curve" smooth="yes"/>
      <point x="105" y="35"/>
      <point x="149" y="-9"/>
    </contour>
    <contour>
      <point x="331" y="-198" type="curve" smooth="yes"/>
      <point x="350" y="-198"/>
      <point x="378" y="-193"/>
      <point x="393" y="-190" type="curve"/>
      <point x="397" y="-158" type="line"/>
      <point x="381" y="-161"/>
      <point x="355" y="-165"/>
      <point x="341" y="-165" type="curve" smooth="yes"/>
      <point x="321" y="-165"/>
      <point x="309" y="-157"/>
      <point x="309" y="-141" type="curve" smooth="yes"/>
      <point x="309" y="-97"/>
      <point x="380" y="-27"/>
      <point x="414" y="0" type="curve"/>
      <point x="382" y="10" type="line"/>
      <point x="349" y="-17"/>
      <point x="269" y="-92"/>
      <point x="269" y="-144" type="curve" smooth="yes"/>
      <point x="269" y="-176"/>
      <point x="288" y="-198"/>
    </contour>
  </outline>
</glyph>
<glyph name="aringacute" format="2">
  <advance width="482"/>
  <unicode hex="01FB"/>
  <outline>
    <contour>
      <point x="332" y="775" type="line"/>
      <point x="536" y="865" type="line"/>
      <point x="529" y="900" type="line"/>
      <point x="326" y="805" type="line"/>
    </contour>
    <component base="a"/>
    <component base="ring" xOffset="-19"/>
  </outline>
</glyph>
<glyph name="Oslashacute" format="2">
  <advance width="638"/>
  <unicode hex="01FE"/>
  <outline>
    <contour>
      <point x="107" y="-110" type="line"/>
      <point x="410" y="332" type="line"/>
      <point x="713" y="777" type="line"/>
      <point x="683" y="791" type="line"/>
      <point x="381" y="348" type="line"/>
      <point x="80" y="-94" type="line"/>
    </contour>
    <contour>
      <point x="442" y="793" type="line"/>
      <point x="647" y="885" type="line"/>
      <point x="637" y="919" type="line"/>
      <point x="433" y="823" type="line"/>
    </contour>
    <component base="O" xOffset="1"/>
  </outline>
</glyph>
<glyph name="oslashacute" format="2">
  <advance width="493"/>
  <unicode hex="01FF"/>
  <outline>
    <contour>
      <point x="95" y="-113" type="line"/>
      <point x="316" y="242" type="line"/>
      <point x="537" y="592" type="line"/>
      <point x="510" y="604" type="line"/>
      <point x="293" y="255" type="line"/>
      <point x="68" y="-102" type="line"/>
    </contour>
    <component base="o"/>
    <component base="acute" xOffset="9"/>
  </outline>
</glyph>
<glyph name="dotlessj" format="2">
  <advance width="182"/>
  <unicode hex="0237"/>
  <outline>
    <contour>
      <point x="-87" y="-239" type="line"/>
      <point x="56" y="-171"/>
      <point x="72" y="-154"/>
      <point x="108" y="0" type="curve" smooth="yes"/>
      <point x="224" y="500" type="line"/>
      <point x="189" y="500" type="line"/>
      <point x="73" y="0" type="line" smooth="yes"/>
      <point x="43" y="-130"/>
      <point x="31" y="-144"/>
      <point x="-99" y="-209" type="curve"/>
    </contour>
  </outline>
</glyph>
<glyph name="circumflex" format="2">
  <advance width="791"/>
  <unicode hex="02C6"/>
  <outline>
    <contour>
      <point x="405" y="595" type="line"/>
      <point x="444" y="595" type="line"/>
      <point x="554" y="696" type="line"/>
      <point x="618" y="595" type="line"/>
      <point x="652" y="595" type="line"/>
      <point x="565" y="730" type="line"/>
      <point x="551" y="730" type="line"/>
    </contour>
  </outline>
</glyph>
<glyph name="breve" format="2">
  <advance width="424"/>
  <unicode hex="02D8"/>
  <outline>
    <contour>
      <point x="349" y="595" type="curve" smooth="yes"/>
      <point x="441" y="595"/>
      <point x="487" y="646"/>
      <point x="506" y="721" type="curve"/>
      <point x="478" y="721" type="line"/>
      <point x="464" y="667"/>
      <point x="426" y="623"/>
      <point x="357" y="623" type="curve" smooth="yes"/>
      <point x="292" y="623"/>
      <point x="268" y="665"/>
      <point x="283" y="721" type="curve"/>
      <point x="255" y="721" type="line"/>
      <point x="238" y="652"/>
      <point x="271" y="595"/>
    </contour>
  </outline>
</glyph>
<glyph name="ring" format="2">
  <advance width="791"/>
  <unicode hex="02DA"/>
  <outline>
    <contour>
      <point x="384" y="556" type="curve" smooth="yes"/>
      <point x="443" y="556"/>
      <point x="493" y="604"/>
      <point x="493" y="668" type="curve" smooth="yes"/>
      <point x="493" y="713"/>
      <point x="470" y="738"/>
      <point x="428" y="738" type="curve" smooth="yes"/>
      <point x="369" y="738"/>
      <point x="328" y="693"/>
      <point x="320" y="647" type="curve" smooth="yes"/>
      <point x="311" y="595"/>
      <point x="327" y="556"/>
    </contour>
    <contour>
      <point x="391" y="585" type="curve" smooth="yes"/>
      <point x="357" y="585"/>
      <point x="341" y="617"/>
      <point x="348" y="647" type="curve" smooth="yes"/>
      <point x="355" y="680"/>
      <point x="387" y="707"/>
      <point x="421" y="707" type="curve" smooth="yes"/>
      <point x="455" y="707"/>
      <point x="470" y="676"/>
      <point x="463" y="647" type="curve" smooth="yes"/>
      <point x="455" y="613"/>
      <point x="425" y="585"/>
    </contour>
  </outline>
</glyph>
<glyph name="semicolon-ar" format="2">
  <advance width="228"/>
  <unicode hex="061B"/>
  <outline>
    <contour>
      <point x="81" y="564" type="line"/>
      <point x="53" y="564" type="line"/>
      <point x="53" y="352" type="line"/>
      <point x="93" y="352" type="line"/>
    </contour>
    <contour>
      <point x="162" y="83" type="line"/>
      <point x="126" y="83" type="line"/>
      <point x="145" y="0" type="line"/>
      <point x="181" y="0" type="line"/>
    </contour>
  </outline>
</glyph>
<glyph name="dal-ar" format="2">
  <advance width="487"/>
  <unicode hex="062F"/>
  <anchor x="317" y="-100" name="bottom"/>
  <anchor x="77" y="573" name="top"/>
  <outline>
    <contour>
      <point x="98" y="0" type="line"/>
      <point x="485" y="0" type="line"/>
      <point x="431" y="234" type="line" smooth="yes"/>
      <point x="384" y="435"/>
      <point x="277" y="500"/>
      <point x="117" y="500" type="curve" smooth="yes"/>
      <point x="34" y="500" type="line"/>
      <point x="42" y="466" type="line"/>
      <point x="122" y="466" type="line" smooth="yes"/>
      <point x="278" y="466"/>
      <point x="358" y="397"/>
      <point x="397" y="230" type="curve" smooth="yes"/>
      <point x="447" y="10" type="line"/>
      <point x="466" y="34" type="line"/>
      <point x="90" y="34" type="line"/>
    </contour>
  </outline>
</glyph>
<glyph name="kashida-ar" format="2">
  <advance width="250"/>
  <unicode hex="0640"/>
  <anchor x="203" y="-100" name="bottom"/>
  <anchor x="64" y="500" name="top"/>
  <outline>
    <contour>
      <point x="58" y="0" type="line"/>
      <point x="308" y="0" type="line"/>
      <point x="300" y="34" type="line"/>
      <point x="50" y="34" type="line"/>
    </contour>
    <component base="connection_r" xOffset="200"/>
    <component base="connection_l"/>
  </outline>
</glyph>
<glyph name="lam-ar" format="2">
  <advance width="635"/>
  <unicode hex="0644"/>
  <anchor x="442" y="-330" name="bottom"/>
  <anchor x="411" y="800" name="top"/>
  <outline>
    <contour>
      <point x="415" y="-248" type="curve" smooth="yes"/>
      <point x="532" y="-248"/>
      <point x="628" y="-193"/>
      <point x="628" y="-86" type="curve" smooth="yes"/>
      <point x="628" y="-71"/>
      <point x="626" y="-55"/>
      <point x="622" y="-38" type="curve" smooth="yes"/>
      <point x="444" y="730" type="line"/>
      <point x="409" y="730" type="line"/>
      <point x="587" y="-42" type="line" smooth="yes"/>
      <point x="590" y="-56"/>
      <point x="592" y="-70"/>
      <point x="592" y="-83" type="curve" smooth="yes"/>
      <point x="592" y="-164"/>
      <point x="525" y="-214"/>
      <point x="413" y="-214" type="curve" smooth="yes"/>
      <point x="279" y="-214"/>
      <point x="164" y="-137"/>
      <point x="140" y="-32" type="curve" smooth="yes"/>
      <point x="131" y="9"/>
      <point x="119" y="130"/>
      <point x="110" y="269" type="curve"/>
      <point x="75" y="271" type="line"/>
      <point x="81" y="171"/>
      <point x="93" y="19"/>
      <point x="107" y="-38" type="curve" smooth="yes"/>
      <point x="135" y="-164"/>
      <point x="270" y="-248"/>
    </contour>
  </outline>
</glyph>
<glyph name="heh-ar" format="2">
  <advance width="556"/>
  <unicode hex="0647"/>
  <anchor x="359" y="-100" name="bottom"/>
  <anchor x="203" y="573" name="top"/>
  <outline>
    <contour>
      <point x="98" y="0" type="line"/>
      <point x="574" y="0" type="line"/>
      <point x="518" y="242" type="line" smooth="yes"/>
      <point x="474" y="433"/>
      <point x="381" y="500"/>
      <point x="224" y="500" type="curve" smooth="yes"/>
      <point x="95" y="500"/>
      <point x="29" y="455"/>
      <point x="29" y="342" type="curve" smooth="yes"/>
      <point x="29" y="312"/>
      <point x="34" y="278"/>
      <point x="43" y="238" type="curve" smooth="yes"/>
    </contour>
    <contour>
      <point x="128" y="20" type="line"/>
      <point x="77" y="242" type="line" smooth="yes"/>
      <point x="68" y="280"/>
      <point x="64" y="312"/>
      <point x="64" y="339" type="curve" smooth="yes"/>
      <point x="64" y="432"/>
      <point x="116" y="466"/>
      <point x="224" y="466" type="curve" smooth="yes"/>
      <point x="378" y="466"/>
      <point x="447" y="397"/>
      <point x="484" y="238" type="curve" smooth="yes"/>
      <point x="534" y="20" type="line"/>
      <point x="545" y="34" type="line"/>
      <point x="109" y="34" type="line"/>
    </contour>
  </outline>
</glyph>
<glyph name="waw-ar" format="2">
  <advance width="523"/>
  <unicode hex="0648"/>
  <anchor x="402" y="-350" name="bottom"/>
  <anchor x="188" y="573" name="top"/>
  <outline>
    <contour>
      <point x="361" y="-246" type="curve" smooth="yes"/>
      <point x="467" y="-246"/>
      <point x="518" y="-190"/>
      <point x="518" y="-104" type="curve" smooth="yes"/>
      <point x="518" y="-83"/>
      <point x="515" y="-63"/>
      <point x="510" y="-40" type="curve" smooth="yes"/>
      <point x="385" y="500" type="line"/>
      <point x="207" y="500" type="line" smooth="yes"/>
      <point x="54" y="500"/>
      <point x="25" y="442"/>
      <point x="25" y="344" type="curve" smooth="yes"/>
      <point x="25" y="208"/>
      <point x="81" y="0"/>
      <point x="319" y="0" type="curve" smooth="yes"/>
      <point x="467" y="0" type="line"/>
      <point x="459" y="34" type="line"/>
      <point x="314" y="34" type="line" smooth="yes"/>
      <point x="112" y="34"/>
      <point x="59" y="210"/>
      <point x="59" y="343" type="curve" smooth="yes"/>
      <point x="59" y="426"/>
      <point x="80" y="466"/>
      <point x="212" y="466" type="curve" smooth="yes"/>
      <point x="374" y="466" type="line"/>
      <point x="355" y="480" type="line"/>
      <point x="476" y="-44" type="line" smooth="yes"/>
      <point x="481" y="-65"/>
      <point x="483" y="-85"/>
      <point x="483" y="-101" type="curve" smooth="yes"/>
      <point x="483" y="-175"/>
      <point x="442" y="-212"/>
      <point x="358" y="-212" type="curve" smooth="yes"/>
      <point x="324" y="-212"/>
      <point x="274" y="-206"/>
      <point x="220" y="-195" type="curve"/>
      <point x="218" y="-228" type="line"/>
      <point x="266" y="-238"/>
      <point x="321" y="-246"/>
    </contour>
  </outline>
</glyph>
<glyph name="fatha-ar" format="2">
  <unicode hex="064E"/>
  <anchor x="23" y="553" name="_top"/>
  <anchor x="8" y="617" name="top"/>
  <outline>
    <contour>
      <point x="-50" y="553" type="line"/>
      <point x="97" y="553" type="line"/>
      <point x="89" y="587" type="line"/>
      <point x="-58" y="587" type="line"/>
    </contour>
  </outline>
</glyph>
<glyph name="damma-ar" format="2">
  <unicode hex="064F"/>
  <anchor x="26" y="553" name="_top"/>
  <anchor x="-16" y="734" name="top"/>
  <outline>
    <contour>
      <point x="-8" y="559" type="curve"/>
      <point x="27" y="562" type="line"/>
      <point x="4" y="614"/>
      <point x="6" y="630"/>
      <point x="25" y="630" type="curve" smooth="yes"/>
      <point x="48" y="630"/>
      <point x="61" y="610"/>
      <point x="62" y="558" type="curve"/>
      <point x="96" y="555" type="line"/>
      <point x="95" y="621"/>
      <point x="74" y="664"/>
      <point x="23" y="664" type="curve" smooth="yes"/>
      <point x="-28" y="664"/>
      <point x="-34" y="621"/>
    </contour>
    <contour>
      <point x="-51" y="555" type="line"/>
      <point x="96" y="555" type="line"/>
      <point x="88" y="589" type="line"/>
      <point x="-59" y="589" type="line"/>
    </contour>
  </outline>
</glyph>
<glyph name="hamzaabove-ar" format="2">
  <unicode hex="0654"/>
  <anchor x="33" y="515" name="_top"/>
  <anchor x="-6" y="683" name="top"/>
  <outline>
    <contour>
      <point x="-2" y="519" type="curve"/>
      <point x="26" y="539" type="line"/>
      <point x="7" y="555"/>
      <point x="-3" y="569"/>
      <point x="-3" y="589" type="curve" smooth="yes"/>
      <point x="-3" y="606"/>
      <point x="8" y="616"/>
      <point x="28" y="616" type="curve" smooth="yes"/>
      <point x="37" y="616"/>
      <point x="45" y="613"/>
      <point x="56" y="607" type="curve"/>
      <point x="69" y="638" type="line"/>
      <point x="55" y="646"/>
      <point x="39" y="650"/>
      <point x="25" y="650" type="curve" smooth="yes"/>
      <point x="-11" y="650"/>
      <point x="-38" y="627"/>
      <point x="-38" y="591" type="curve" smooth="yes"/>
      <point x="-38" y="569"/>
      <point x="-27" y="544"/>
    </contour>
    <contour>
      <point x="-41" y="515" type="line"/>
      <point x="106" y="515" type="line"/>
      <point x="98" y="549" type="line"/>
      <point x="-49" y="549" type="line"/>
    </contour>
  </outline>
</glyph>
<glyph name="noonghunnaabove-ar" format="2">
  <unicode hex="0658"/>
  <anchor x="80" y="386" name="_top"/>
  <anchor x="30" y="600" name="top"/>
  <outline>
    <contour>
      <point x="1" y="506" type="curve"/>
      <point x="-34" y="511" type="line"/>
      <point x="-26" y="434"/>
      <point x="-12" y="386"/>
      <point x="77" y="386" type="curve" smooth="yes"/>
      <point x="110" y="386"/>
      <point x="155" y="404"/>
      <point x="155" y="445" type="curve" smooth="yes"/>
      <point x="155" y="458"/>
      <point x="147" y="484"/>
      <point x="137" y="510" type="curve"/>
      <point x="102" y="506" type="line"/>
      <point x="122" y="455"/>
      <point x="137" y="420"/>
      <point x="75" y="420" type="curve" smooth="yes"/>
      <point x="13" y="420"/>
      <point x="4" y="455"/>
    </contour>
  </outline>
</glyph>
<glyph name="zero-ar" format="2">
  <advance width="216"/>
  <unicode hex="0660"/>
  <outline>
    <contour>
      <point x="103" y="151" type="line"/>
      <point x="159" y="151" type="line"/>
      <point x="142" y="225" type="line"/>
      <point x="86" y="225" type="line"/>
    </contour>
  </outline>
</glyph>
<glyph name="four-ar" format="2">
  <advance width="452"/>
  <unicode hex="0664"/>
  <outline>
    <contour>
      <point x="314" y="-8" type="curve" smooth="yes"/>
      <point x="353" y="-8"/>
      <point x="390" y="-1"/>
      <point x="426" y="8" type="curve"/>
      <point x="414" y="41" type="line"/>
      <point x="371" y="31"/>
      <point x="340" y="26"/>
      <point x="309" y="26" type="curve" smooth="yes"/>
      <point x="176" y="26"/>
      <point x="98" y="121"/>
      <point x="98" y="208" type="curve" smooth="yes"/>
      <point x="98" y="278"/>
      <point x="148" y="317"/>
      <point x="241" y="317" type="curve"/>
      <point x="236" y="351" type="line"/>
      <point x="131" y="351"/>
      <point x="64" y="302"/>
      <point x="64" y="209" type="curve" smooth="yes"/>
      <point x="64" y="98"/>
      <point x="161" y="-8"/>
    </contour>
    <contour>
      <point x="243" y="317" type="line"/>
      <point x="307" y="317" type="line"/>
      <point x="299" y="351" type="line"/>
      <point x="235" y="351" type="line"/>
    </contour>
    <contour>
      <point x="241" y="317" type="curve"/>
      <point x="236" y="351" type="line"/>
      <point x="101" y="351"/>
      <point x="23" y="443"/>
      <point x="23" y="531" type="curve" smooth="yes"/>
      <point x="23" y="602"/>
      <point x="73" y="642"/>
      <point x="163" y="642" type="curve" smooth="yes"/>
      <point x="195" y="642"/>
      <point x="228" y="637"/>
      <point x="276" y="627" type="curve"/>
      <point x="278" y="660" type="line"/>
      <point x="239" y="669"/>
      <point x="199" y="676"/>
      <point x="161" y="676" type="curve" smooth="yes"/>
      <point x="57" y="676"/>
      <point x="-11" y="626"/>
      <point x="-11" y="534" type="curve" smooth="yes"/>
      <point x="-11" y="426"/>
      <point x="81" y="317"/>
    </contour>
  </outline>
</glyph>
<glyph name="seven-ar" format="2">
  <advance width="581"/>
  <unicode hex="0667"/>
  <outline>
    <contour>
      <point x="313" y="0" type="line"/>
      <point x="375" y="0" type="line"/>
      <point x="446" y="660" type="line"/>
      <point x="409" y="660" type="line"/>
      <point x="340" y="11" type="line"/>
      <point x="367" y="34" type="line"/>
      <point x="305" y="34" type="line"/>
      <point x="344" y="11" type="line"/>
      <point x="-18" y="660" type="line"/>
      <point x="-55" y="660" type="line"/>
    </contour>
  </outline>
</glyph>
<glyph name="eight-ar" format="2">
  <advance width="581"/>
  <unicode hex="0668"/>
  <outline>
    <contour>
      <point x="231" y="660" type="line"/>
      <point x="169" y="660" type="line"/>
      <point x="98" y="0" type="line"/>
      <point x="135" y="0" type="line"/>
      <point x="204" y="649" type="line"/>
      <point x="177" y="626" type="line"/>
      <point x="239" y="626" type="line"/>
      <point x="200" y="649" type="line"/>
      <point x="562" y="0" type="line"/>
      <point x="599" y="0" type="line"/>
    </contour>
  </outline>
</glyph>
<glyph name="nine-ar" format="2">
  <advance width="506"/>
  <unicode hex="0669"/>
  <outline>
    <contour>
      <point x="418" y="0" type="line"/>
      <point x="453" y="0" type="line"/>
      <point x="300" y="660" type="line"/>
      <point x="181" y="660" type="line" smooth="yes"/>
      <point x="43" y="660"/>
      <point x="-32" y="601"/>
      <point x="-32" y="500" type="curve" smooth="yes"/>
      <point x="-32" y="401"/>
      <point x="41" y="247"/>
      <point x="242" y="247" type="curve" smooth="yes"/>
      <point x="282" y="247"/>
      <point x="329" y="253"/>
      <point x="365" y="263" type="curve"/>
      <point x="351" y="296" type="line"/>
      <point x="318" y="287"/>
      <point x="275" y="281"/>
      <point x="239" y="281" type="curve" smooth="yes"/>
      <point x="84" y="281"/>
      <point x="3" y="393"/>
      <point x="3" y="494" type="curve" smooth="yes"/>
      <point x="3" y="583"/>
      <point x="66" y="626"/>
      <point x="186" y="626" type="curve" smooth="yes"/>
      <point x="310" y="626" type="line"/>
      <point x="266" y="660" type="line"/>
    </contour>
  </outline>
</glyph>
<glyph name="percent-ar" format="2">
  <advance width="560"/>
  <unicode hex="066A"/>
  <outline>
    <contour>
      <point x="265" y="-9" type="line"/>
      <point x="297" y="660" type="line"/>
      <point x="264" y="669" type="line"/>
      <point x="233" y="-1" type="line"/>
    </contour>
    <contour>
      <point x="52" y="516" type="line"/>
      <point x="108" y="516" type="line"/>
      <point x="91" y="590" type="line"/>
      <point x="35" y="590" type="line"/>
    </contour>
    <contour>
      <point x="414" y="110" type="line"/>
      <point x="470" y="110" type="line"/>
      <point x="453" y="184" type="line"/>
      <point x="397" y="184" type="line"/>
    </contour>
  </outline>
</glyph>
<glyph name="decimalseparator-ar" format="2">
  <advance width="197"/>
  <unicode hex="066B"/>
  <outline>
    <contour>
      <point x="159" y="-129" type="line"/>
      <point x="187" y="-129" type="line"/>
      <point x="139" y="83" type="line"/>
      <point x="99" y="83" type="line"/>
    </contour>
  </outline>
</glyph>
<glyph name="behDotless-ar" format="2">
  <advance width="761"/>
  <unicode hex="066E"/>
  <anchor x="428" y="-60" name="bottom"/>
  <anchor x="303" y="480" name="top"/>
  <outline>
    <contour>
      <point x="393" y="0" type="curve" smooth="yes"/>
      <point x="729" y="0" type="line"/>
      <point x="613" y="500" type="line"/>
      <point x="578" y="500" type="line"/>
      <point x="689" y="20" type="line"/>
      <point x="700" y="34" type="line"/>
      <point x="388" y="34" type="line" smooth="yes"/>
      <point x="117" y="34"/>
      <point x="73" y="165"/>
      <point x="68" y="386" type="curve"/>
      <point x="33" y="393" type="line"/>
      <point x="38" y="138"/>
      <point x="97" y="0"/>
    </contour>
  </outline>
</glyph>
<glyph name="alefabove-ar" format="2">
  <unicode hex="0670"/>
  <anchor x="-18" y="488" name="_top"/>
  <anchor x="-60" y="668" name="top"/>
  <outline>
    <contour>
      <point x="-35" y="488" type="line"/>
      <point x="-1" y="488" type="line"/>
      <point x="-19" y="568" type="line"/>
      <point x="-53" y="568" type="line"/>
    </contour>
  </outline>
</glyph>
<glyph name="noonghunna-ar" format="2">
  <advance width="635"/>
  <unicode hex="06BA"/>
  <anchor x="442" y="-330" name="bottom"/>
  <anchor x="242" y="500" name="top"/>
  <outline>
    <contour>
      <point x="415" y="-248" type="curve" smooth="yes"/>
      <point x="548" y="-248"/>
      <point x="654" y="-177"/>
      <point x="622" y="-38" type="curve" smooth="yes"/>
      <point x="497" y="500" type="line"/>
      <point x="462" y="500" type="line"/>
      <point x="587" y="-42" type="line" smooth="yes"/>
      <point x="612" y="-147"/>
      <point x="543" y="-214"/>
      <point x="413" y="-214" type="curve" smooth="yes"/>
      <point x="130" y="-214"/>
      <point x="127" y="-13"/>
      <point x="110" y="269" type="curve"/>
      <point x="75" y="271" type="line"/>
      <point x="92" y="-21"/>
      <point x="104" y="-248"/>
    </contour>
  </outline>
</glyph>
<glyph name="hehDoachashmee-ar" format="2">
  <advance width="760"/>
  <unicode hex="06BE"/>
  <anchor x="435" y="-100" name="bottom"/>
  <anchor x="266" y="630" name="top"/>
  <outline>
    <contour>
      <point x="98" y="0" type="line"/>
      <point x="738" y="0" type="line"/>
      <point x="694" y="191" type="line" smooth="yes"/>
      <point x="635" y="447"/>
      <point x="458" y="523"/>
      <point x="294" y="523" type="curve" smooth="yes"/>
      <point x="193" y="523"/>
      <point x="94" y="495"/>
      <point x="70" y="488" type="curve"/>
      <point x="79" y="462" type="line"/>
      <point x="143" y="474"/>
      <point x="226" y="489"/>
      <point x="296" y="489" type="curve" smooth="yes"/>
      <point x="487" y="489"/>
      <point x="614" y="384"/>
      <point x="659" y="187" type="curve" smooth="yes"/>
      <point x="698" y="20" type="line"/>
      <point x="709" y="34" type="line"/>
      <point x="90" y="34" type="line"/>
    </contour>
    <contour>
      <point x="160" y="34" type="line"/>
      <point x="195" y="34" type="line"/>
      <point x="166" y="160" type="line" smooth="yes"/>
      <point x="164" y="170"/>
      <point x="163" y="179"/>
      <point x="163" y="188" type="curve" smooth="yes"/>
      <point x="163" y="244"/>
      <point x="204" y="283"/>
      <point x="265" y="283" type="curve" smooth="yes"/>
      <point x="340" y="283"/>
      <point x="411" y="226"/>
      <point x="428" y="156" type="curve" smooth="yes"/>
      <point x="456" y="34" type="line"/>
      <point x="491" y="34" type="line"/>
      <point x="462" y="160" type="line" smooth="yes"/>
      <point x="441" y="249"/>
      <point x="354" y="317"/>
      <point x="263" y="317" type="curve" smooth="yes"/>
      <point x="183" y="317"/>
      <point x="128" y="263"/>
      <point x="128" y="191" type="curve" smooth="yes"/>
      <point x="128" y="180"/>
      <point x="129" y="168"/>
      <point x="132" y="156" type="curve" smooth="yes"/>
    </contour>
  </outline>
</glyph>
<glyph name="yehbarree-ar" format="2">
  <advance width="707"/>
  <unicode hex="06D2"/>
  <anchor x="506" y="-310" name="bottom"/>
  <anchor x="130" y="160" name="top"/>
  <outline>
    <contour>
      <point x="375" y="-210" type="curve" smooth="yes"/>
      <point x="686" y="-210" type="line"/>
      <point x="678" y="-176" type="line"/>
      <point x="370" y="-176" type="line" smooth="yes"/>
      <point x="234" y="-176"/>
      <point x="164" y="-136"/>
      <point x="144" y="-47" type="curve" smooth="yes"/>
      <point x="132" y="6" type="line"/>
      <point x="123" y="0" type="line"/>
      <point x="470" y="0" type="line" smooth="yes"/>
      <point x="603" y="0"/>
      <point x="673" y="47"/>
      <point x="673" y="151" type="curve" smooth="yes"/>
      <point x="673" y="172"/>
      <point x="670" y="196"/>
      <point x="664" y="222" type="curve" smooth="yes"/>
      <point x="639" y="328" type="line"/>
      <point x="604" y="328" type="line"/>
      <point x="629" y="218" type="line" smooth="yes"/>
      <point x="635" y="194"/>
      <point x="638" y="172"/>
      <point x="638" y="153" type="curve" smooth="yes"/>
      <point x="638" y="70"/>
      <point x="584" y="34"/>
      <point x="465" y="34" type="curve" smooth="yes"/>
      <point x="131" y="34" type="line"/>
      <point x="97" y="4" type="line"/>
      <point x="109" y="-51" type="line" smooth="yes"/>
      <point x="135" y="-161"/>
      <point x="221" y="-210"/>
    </contour>
  </outline>
</glyph>
<glyph name="four-persian" format="2">
  <advance width="618"/>
  <unicode hex="06F4"/>
  <outline>
    <contour>
      <point x="330" y="330" type="curve" smooth="yes"/>
      <point x="456" y="330"/>
      <point x="525" y="377"/>
      <point x="525" y="461" type="curve" smooth="yes"/>
      <point x="525" y="473"/>
      <point x="523" y="487"/>
      <point x="520" y="502" type="curve" smooth="yes"/>
      <point x="497" y="601" type="line"/>
      <point x="462" y="601" type="line"/>
      <point x="486" y="498" type="line" smooth="yes"/>
      <point x="489" y="486"/>
      <point x="490" y="475"/>
      <point x="490" y="464" type="curve" smooth="yes"/>
      <point x="490" y="398"/>
      <point x="436" y="364"/>
      <point x="328" y="364" type="curve" smooth="yes"/>
      <point x="198" y="364"/>
      <point x="117" y="415"/>
      <point x="97" y="502" type="curve" smooth="yes"/>
      <point x="60" y="660" type="line"/>
      <point x="25" y="660" type="line"/>
      <point x="63" y="498" type="line" smooth="yes"/>
      <point x="88" y="390"/>
      <point x="185" y="330"/>
    </contour>
    <contour>
      <point x="178" y="0" type="line"/>
      <point x="213" y="0" type="line"/>
      <point x="60" y="660" type="line"/>
      <point x="25" y="660" type="line"/>
    </contour>
    <contour>
      <point x="326" y="335" type="curve"/>
      <point x="370" y="364" type="line"/>
      <point x="273" y="364"/>
      <point x="220" y="428"/>
      <point x="220" y="492" type="curve" smooth="yes"/>
      <point x="220" y="539"/>
      <point x="255" y="567"/>
      <point x="318" y="567" type="curve" smooth="yes"/>
      <point x="345" y="567"/>
      <point x="373" y="562"/>
      <point x="403" y="556" type="curve"/>
      <point x="405" y="589" type="line"/>
      <point x="375" y="595"/>
      <point x="344" y="601"/>
      <point x="316" y="601" type="curve" smooth="yes"/>
      <point x="236" y="601"/>
      <point x="185" y="561"/>
      <point x="185" y="495" type="curve" smooth="yes"/>
      <point x="185" y="428"/>
      <point x="230" y="356"/>
    </contour>
  </outline>
</glyph>
<glyph name="five-persian" format="2">
  <advance width="540"/>
  <unicode hex="06F5"/>
  <outline>
    <contour>
      <point x="213" y="0" type="curve" smooth="yes"/>
      <point x="268" y="0"/>
      <point x="287" y="54"/>
      <point x="286" y="94" type="curve"/>
      <point x="290" y="94"/>
      <point x="329" y="0"/>
      <point x="397" y="0" type="curve" smooth="yes"/>
      <point x="456" y="0"/>
      <point x="495" y="62"/>
      <point x="472" y="180" type="curve" smooth="yes"/>
      <point x="428" y="408"/>
      <point x="206" y="542"/>
      <point x="74" y="633" type="curve"/>
      <point x="56" y="604" type="line"/>
      <point x="194" y="509"/>
      <point x="397" y="387"/>
      <point x="439" y="173" type="curve" smooth="yes"/>
      <point x="458" y="74"/>
      <point x="427" y="34"/>
      <point x="394" y="34" type="curve" smooth="yes"/>
      <point x="343" y="34"/>
      <point x="326" y="128"/>
      <point x="285" y="128" type="curve"/>
      <point x="240" y="128"/>
      <point x="267" y="34"/>
      <point x="213" y="34" type="curve" smooth="yes"/>
      <point x="174" y="34"/>
      <point x="127" y="80"/>
      <point x="109" y="172" type="curve" smooth="yes"/>
      <point x="84" y="300"/>
      <point x="132" y="444"/>
      <point x="255" y="498" type="curve"/>
      <point x="218" y="518" type="line"/>
      <point x="106" y="456"/>
      <point x="46" y="314"/>
      <point x="74" y="169" type="curve" smooth="yes"/>
      <point x="94" y="69"/>
      <point x="150" y="0"/>
    </contour>
  </outline>
</glyph>
<glyph name="six-persian" format="2">
  <advance width="462"/>
  <unicode hex="06F6"/>
  <outline>
    <contour>
      <point x="261" y="317" type="curve"/>
      <point x="256" y="351" type="line"/>
      <point x="121" y="351"/>
      <point x="43" y="442"/>
      <point x="43" y="534" type="curve" smooth="yes"/>
      <point x="43" y="601"/>
      <point x="94" y="642"/>
      <point x="183" y="642" type="curve" smooth="yes"/>
      <point x="215" y="642"/>
      <point x="248" y="637"/>
      <point x="296" y="627" type="curve"/>
      <point x="298" y="660" type="line"/>
      <point x="259" y="669"/>
      <point x="219" y="676"/>
      <point x="181" y="676" type="curve" smooth="yes"/>
      <point x="77" y="676"/>
      <point x="9" y="624"/>
      <point x="9" y="537" type="curve" smooth="yes"/>
      <point x="9" y="424"/>
      <point x="101" y="317"/>
    </contour>
    <contour>
      <point x="128" y="-2" type="curve"/>
      <point x="162" y="2" type="line"/>
      <point x="152" y="43"/>
      <point x="148" y="81"/>
      <point x="148" y="115" type="curve" smooth="yes"/>
      <point x="148" y="242"/>
      <point x="212" y="317"/>
      <point x="327" y="317" type="curve"/>
      <point x="322" y="351" type="line"/>
      <point x="192" y="351"/>
      <point x="113" y="265"/>
      <point x="113" y="117" type="curve" smooth="yes"/>
      <point x="113" y="81"/>
      <point x="118" y="41"/>
    </contour>
    <contour>
      <point x="263" y="317" type="line"/>
      <point x="329" y="317" type="line"/>
      <point x="321" y="351" type="line"/>
      <point x="255" y="351" type="line"/>
    </contour>
  </outline>
</glyph>
<glyph name="dagger" format="2">
  <advance width="438"/>
  <unicode hex="2020"/>
  <outline>
    <contour>
      <point x="180" y="-78" type="line"/>
      <point x="213" y="-78" type="line"/>
      <point x="340" y="462" type="line"/>
      <point x="513" y="460" type="line"/>
      <point x="523" y="498" type="line"/>
      <point x="350" y="498" type="line"/>
      <point x="396" y="698" type="line"/>
      <point x="363" y="698" type="line"/>
      <point x="315" y="496" type="line"/>
      <point x="144" y="498" type="line"/>
      <point x="135" y="460" type="line"/>
      <point x="306" y="460" type="line"/>
    </contour>
  </outline>
</glyph>
<glyph name="guilsinglleft" format="2">
  <advance width="272"/>
  <unicode hex="2039"/>
  <outline>
    <contour>
      <point x="222" y="104" type="line"/>
      <point x="233" y="139" type="line"/>
      <point x="139" y="249" type="line"/>
      <point x="283" y="350" type="line"/>
      <point x="295" y="391" type="line"/>
      <point x="106" y="263" type="line"/>
      <point x="98" y="241" type="line"/>
    </contour>
  </outline>
</glyph>
<glyph name="fraction" format="2">
  <unicode hex="2044"/>
  <outline>
    <contour>
      <point x="-119" y="-21" type="line"/>
      <point x="306" y="666" type="line"/>
      <point x="273" y="680" type="line"/>
      <point x="-152" y="-8" type="line"/>
    </contour>
  </outline>
</glyph>
<glyph name="zerosuperior" format="2">
  <advance width="280"/>
  <unicode hex="2070"/>
  <outline>
    <contour>
      <point x="244" y="469" type="curve" smooth="yes"/>
      <point x="273" y="469"/>
      <point x="300" y="475"/>
      <point x="324" y="494" type="curve" smooth="yes"/>
      <point x="355" y="519"/>
      <point x="380" y="564"/>
      <point x="398" y="635" type="curve" smooth="yes"/>
      <point x="428" y="758"/>
      <point x="393" y="799"/>
      <point x="326" y="799" type="curve" smooth="yes"/>
      <point x="297" y="799"/>
      <point x="270" y="793"/>
      <point x="247" y="775" type="curve" smooth="yes"/>
      <point x="216" y="751"/>
      <point x="190" y="706"/>
      <point x="173" y="636" type="curve" smooth="yes"/>
      <point x="142" y="513"/>
      <point x="177" y="469"/>
    </contour>
    <contour>
      <point x="253" y="503" type="curve" smooth="yes"/>
      <point x="205" y="503"/>
      <point x="185" y="536"/>
      <point x="210" y="635" type="curve" smooth="yes"/>
      <point x="233" y="727"/>
      <point x="266" y="765"/>
      <point x="317" y="765" type="curve" smooth="yes"/>
      <point x="370" y="765"/>
      <point x="383" y="725"/>
      <point x="361" y="636" type="curve" smooth="yes"/>
      <point x="336" y="536"/>
      <point x="301" y="503"/>
    </contour>
  </outline>
</glyph>
<glyph name="foursuperior" format="2">
  <advance width="280"/>
  <unicode hex="2074"/>
  <outline>
    <contour>
      <point x="286" y="478" type="line"/>
      <point x="322" y="478" type="line"/>
      <point x="336" y="535" type="line"/>
      <point x="373" y="535" type="line"/>
      <point x="381" y="569" type="line"/>
      <point x="344" y="569" type="line"/>
      <point x="366" y="656" type="line"/>
      <point x="330" y="656" type="line"/>
      <point x="308" y="569" type="line"/>
      <point x="204" y="569" type="line"/>
      <point x="346" y="790" type="line"/>
      <point x="306" y="790" type="line"/>
      <point x="162" y="567" type="line"/>
      <point x="154" y="535" type="line"/>
      <point x="300" y="535" type="line"/>
    </contour>
  </outline>
</glyph>
<glyph name="sixsuperior" format="2">
  <advance width="280"/>
  <unicode hex="2076"/>
  <outline>
    <contour>
      <point x="249" y="469" type="curve" smooth="yes"/>
      <point x="322" y="469"/>
      <point x="364" y="509"/>
      <point x="382" y="579" type="curve" smooth="yes"/>
      <point x="397" y="640"/>
      <point x="375" y="680"/>
      <point x="305" y="680" type="curve" smooth="yes"/>
      <point x="279" y="680"/>
      <point x="246" y="669"/>
      <point x="227" y="661" type="curve"/>
      <point x="248" y="738"/>
      <point x="281" y="765"/>
      <point x="332" y="765" type="curve" smooth="yes"/>
      <point x="360" y="765"/>
      <point x="392" y="761"/>
      <point x="408" y="758" type="curve"/>
      <point x="418" y="790" type="line"/>
      <point x="401" y="794"/>
      <point x="368" y="799"/>
      <point x="341" y="799" type="curve" smooth="yes"/>
      <point x="266" y="799"/>
      <point x="213" y="761"/>
      <point x="182" y="635" type="curve" smooth="yes"/>
      <point x="153" y="519"/>
      <point x="181" y="469"/>
    </contour>
    <contour>
      <point x="258" y="503" type="curve" smooth="yes"/>
      <point x="206" y="503"/>
      <point x="199" y="547"/>
      <point x="217" y="624" type="curve"/>
      <point x="217" y="625"/>
      <point x="259" y="646"/>
      <point x="296" y="646" type="curve" smooth="yes"/>
      <point x="346" y="646"/>
      <point x="356" y="629"/>
      <point x="344" y="579" type="curve" smooth="yes"/>
      <point x="333" y="537"/>
      <point x="309" y="503"/>
    </contour>
  </outline>
</glyph>
<glyph name="sevensuperior" format="2">
  <advance width="280"/>
  <unicode hex="2077"/>
  <outline>
    <contour>
      <point x="221" y="470" type="line"/>
      <point x="397" y="729" type="line"/>
      <point x="412" y="790" type="line"/>
      <point x="218" y="790" type="line"/>
      <point x="210" y="756" type="line"/>
      <point x="364" y="756" type="line"/>
      <point x="358" y="731" type="line"/>
      <point x="182" y="481" type="line"/>
    </contour>
  </outline>
</glyph>
<glyph name="ninesuperior" format="2">
  <advance width="280"/>
  <unicode hex="2079"/>
  <outline>
    <contour>
      <point x="232" y="469" type="curve" smooth="yes"/>
      <point x="317" y="469"/>
      <point x="362" y="507"/>
      <point x="393" y="631" type="curve" smooth="yes"/>
      <point x="421" y="744"/>
      <point x="397" y="799"/>
      <point x="326" y="799" type="curve" smooth="yes"/>
      <point x="260" y="799"/>
      <point x="210" y="762"/>
      <point x="193" y="694" type="curve" smooth="yes"/>
      <point x="178" y="631"/>
      <point x="205" y="589"/>
      <point x="267" y="589" type="curve" smooth="yes"/>
      <point x="293" y="589"/>
      <point x="330" y="599"/>
      <point x="351" y="606" type="curve"/>
      <point x="332" y="537"/>
      <point x="298" y="503"/>
      <point x="241" y="503" type="curve" smooth="yes"/>
      <point x="214" y="503"/>
      <point x="181" y="507"/>
      <point x="164" y="510" type="curve"/>
      <point x="153" y="479" type="line"/>
      <point x="171" y="475"/>
      <point x="205" y="469"/>
    </contour>
    <contour>
      <point x="277" y="623" type="curve" smooth="yes"/>
      <point x="235" y="623"/>
      <point x="221" y="654"/>
      <point x="231" y="695" type="curve" smooth="yes"/>
      <point x="243" y="742"/>
      <point x="275" y="765"/>
      <point x="317" y="765" type="curve" smooth="yes"/>
      <point x="370" y="765"/>
      <point x="377" y="720"/>
      <point x="360" y="644" type="curve"/>
      <point x="339" y="635"/>
      <point x="301" y="623"/>
    </contour>
  </outline>
</glyph>
<glyph name="Euro" format="2">
  <advance width="560"/>
  <unicode hex="20AC"/>
  <outline>
    <contour>
      <point x="143" y="389" type="line"/>
      <point x="534" y="389" type="line"/>
      <point x="541" y="421" type="line"/>
      <point x="151" y="421" type="line"/>
    </contour>
    <contour>
      <point x="106" y="227" type="line"/>
      <point x="497" y="227" type="line"/>
      <point x="504" y="259" type="line"/>
      <point x="114" y="259" type="line"/>
    </contour>
    <contour>
      <point x="328" y="-9" type="curve" smooth="yes"/>
      <point x="383" y="-9"/>
      <point x="451" y="2"/>
      <point x="486" y="10" type="curve"/>
      <point x="487" y="42" type="line"/>
      <point x="453" y="34"/>
      <point x="388" y="24"/>
      <point x="333" y="24" type="curve" smooth="yes"/>
      <point x="233" y="24"/>
      <point x="189" y="74"/>
      <point x="189" y="180" type="curve" smooth="yes"/>
      <point x="189" y="367"/>
      <point x="286" y="638"/>
      <point x="478" y="638" type="curve" smooth="yes"/>
      <point x="529" y="638"/>
      <point x="594" y="628"/>
      <point x="629" y="622" type="curve"/>
      <point x="636" y="652" type="line"/>
      <point x="601" y="660"/>
      <point x="535" y="670"/>
      <point x="482" y="670" type="curve" smooth="yes"/>
      <point x="258" y="670"/>
      <point x="153" y="381"/>
      <point x="153" y="180" type="curve" smooth="yes"/>
      <point x="153" y="56"/>
      <point x="211" y="-9"/>
    </contour>
  </outline>
</glyph>
<glyph name="Omega" format="2">
  <advance width="560"/>
  <unicode hex="2126"/>
  <outline>
    <contour>
      <point x="88" y="-9" type="line"/>
      <point x="277" y="-9" type="line"/>
      <point x="277" y="20" type="line"/>
      <point x="225" y="122"/>
      <point x="156" y="286"/>
      <point x="156" y="360" type="curve" smooth="yes"/>
      <point x="156" y="540"/>
      <point x="176" y="636"/>
      <point x="327" y="636" type="curve" smooth="yes"/>
      <point x="476" y="636"/>
      <point x="498" y="540"/>
      <point x="498" y="360" type="curve" smooth="yes"/>
      <point x="498" y="286"/>
      <point x="429" y="122"/>
      <point x="377" y="20" type="curve"/>
      <point x="377" y="-9" type="line"/>
      <point x="566" y="-9" type="line"/>
      <point x="566" y="25" type="line"/>
      <point x="416" y="25" type="line"/>
      <point x="468" y="122"/>
      <point x="536" y="282"/>
      <point x="536" y="370" type="curve" smooth="yes"/>
      <point x="536" y="564"/>
      <point x="500" y="670"/>
      <point x="327" y="670" type="curve" smooth="yes"/>
      <point x="154" y="670"/>
      <point x="118" y="564"/>
      <point x="118" y="370" type="curve" smooth="yes"/>
      <point x="118" y="282"/>
      <point x="186" y="122"/>
      <point x="237" y="25" type="curve"/>
      <point x="88" y="25" type="line"/>
    </contour>
  </outline>
</glyph>
<glyph name="summation" format="2">
  <advance width="560"/>
  <unicode hex="2211"/>
  <outline>
    <contour>
      <point x="123" y="-151" type="line"/>
      <point x="573" y="-151" type="line"/>
      <point x="573" y="-117" type="line"/>
      <point x="160" y="-117" type="line"/>
      <point x="160" y="-85" type="line"/>
      <point x="444" y="298" type="line"/>
      <point x="444" y="328" type="line"/>
      <point x="160" y="688" type="line"/>
      <point x="160" y="715" type="line"/>
      <point x="573" y="715" type="line"/>
      <point x="573" y="749" type="line"/>
      <point x="123" y="749" type="line"/>
      <point x="123" y="676" type="line"/>
      <point x="409" y="314" type="line"/>
      <point x="123" y="-76" type="line"/>
    </contour>
  </outline>
</glyph>
<glyph name="infinity" format="2">
  <advance width="560"/>
  <unicode hex="221E"/>
  <outline>
    <contour>
      <point x="479" y="121" type="curve" smooth="yes"/>
      <point x="559" y="121"/>
      <point x="595" y="187"/>
      <point x="595" y="292" type="curve" smooth="yes"/>
      <point x="595" y="397"/>
      <point x="559" y="463"/>
      <point x="481" y="463" type="curve" smooth="yes"/>
      <point x="393" y="463"/>
      <point x="365" y="390"/>
      <point x="332" y="292" type="curve"/>
      <point x="365" y="195"/>
      <point x="393" y="121"/>
    </contour>
    <contour>
      <point x="215" y="121" type="curve" smooth="yes"/>
      <point x="301" y="121"/>
      <point x="319" y="158"/>
      <point x="362" y="292" type="curve"/>
      <point x="329" y="390"/>
      <point x="301" y="463"/>
      <point x="213" y="463" type="curve" smooth="yes"/>
      <point x="135" y="463"/>
      <point x="99" y="397"/>
      <point x="99" y="292" type="curve" smooth="yes"/>
      <point x="99" y="187"/>
      <point x="135" y="121"/>
    </contour>
    <contour>
      <point x="214" y="156" type="curve" smooth="yes"/>
      <point x="159" y="156"/>
      <point x="137" y="214"/>
      <point x="137" y="292" type="curve" smooth="yes"/>
      <point x="137" y="380"/>
      <point x="158" y="428"/>
      <point x="214" y="428" type="curve" smooth="yes"/>
      <point x="288" y="428"/>
      <point x="305" y="355"/>
      <point x="332" y="292" type="curve"/>
      <point x="294" y="193"/>
      <point x="288" y="156"/>
    </contour>
    <contour>
      <point x="480" y="156" type="curve" smooth="yes"/>
      <point x="406" y="156"/>
      <point x="389" y="229"/>
      <point x="362" y="292" type="curve"/>
      <point x="389" y="355"/>
      <point x="406" y="428"/>
      <point x="480" y="428" type="curve" smooth="yes"/>
      <point x="536" y="428"/>
      <point x="557" y="380"/>
      <point x="557" y="292" type="curve" smooth="yes"/>
      <point x="557" y="204"/>
      <point x="535" y="156"/>
    </contour>
  </outline>
</glyph>
<glyph name="integral" format="2">
  <advance width="560"/>
  <unicode hex="222B"/>
  <outline>
    <contour>
      <point x="238" y="-179" type="curve" smooth="yes"/>
      <point x="329" y="-179"/>
      <point x="365" y="-134"/>
      <point x="365" y="0" type="curve" smooth="yes"/>
      <point x="365" y="564" type="line" smooth="yes"/>
      <point x="365" y="704"/>
      <point x="400" y="746"/>
      <point x="457" y="746" type="curve" smooth="yes"/>
      <point x="486" y="746"/>
      <point x="520" y="743"/>
      <point x="538" y="741" type="curve"/>
      <point x="540" y="773" type="line"/>
      <point x="524" y="776"/>
      <point x="490" y="779"/>
      <point x="457" y="779" type="curve" smooth="yes"/>
      <point x="377" y="779"/>
      <point x="330" y="727"/>
      <point x="330" y="564" type="curve" smooth="yes"/>
      <point x="330" y="0" type="line" smooth="yes"/>
      <point x="330" y="-110"/>
      <point x="305" y="-146"/>
      <point x="238" y="-146" type="curve" smooth="yes"/>
      <point x="215" y="-146"/>
      <point x="179" y="-143"/>
      <point x="158" y="-141" type="curve"/>
      <point x="156" y="-174" type="line"/>
      <point x="176" y="-176"/>
      <point x="212" y="-179"/>
    </contour>
  </outline>
</glyph>
<glyph name="lozenge" format="2">
  <advance width="560"/>
  <unicode hex="25CA"/>
  <outline>
    <contour>
      <point x="317" y="0" type="line"/>
      <point x="393" y="0" type="line"/>
      <point x="575" y="332" type="line"/>
      <point x="393" y="660" type="line"/>
      <point x="317" y="660" type="line"/>
      <point x="135" y="332" type="line"/>
    </contour>
    <contour>
      <point x="341" y="34" type="line"/>
      <point x="177" y="332" type="line"/>
      <point x="341" y="630" type="line"/>
      <point x="368" y="630" type="line"/>
      <point x="533" y="332" type="line"/>
      <point x="368" y="34" type="line"/>
    </contour>
  </outline>
</glyph>
<glyph name="gaf-ar.fina" format="2">
  <advance width="771"/>
  <unicode hex="FB93"/>
  <anchor x="479" y="-100" name="bottom"/>
  <anchor x="77" y="730" name="top"/>
  <outline>
    <contour>
      <point x="128" y="510" type="curve"/>
      <point x="157" y="477" type="line"/>
      <point x="186" y="583"/>
      <point x="196" y="614"/>
      <point x="242" y="725" type="curve"/>
      <point x="212" y="742" type="line"/>
      <point x="178" y="662"/>
      <point x="159" y="608"/>
    </contour>
    <component base="keheh-ar.fina"/>
  </outline>
</glyph>
<glyph name="hehgoal-ar.fina" format="2">
  <advance width="543"/>
  <unicode hex="FBA7"/>
  <anchor x="344" y="-100" name="bottom"/>
  <anchor x="188" y="573" name="top"/>
  <outline>
    <contour>
      <point x="98" y="0" type="line"/>
      <point x="133" y="0" type="line"/>
      <point x="75" y="252" type="line" smooth="yes"/>
      <point x="65" y="294"/>
      <point x="60" y="329"/>
      <point x="60" y="357" type="curve" smooth="yes"/>
      <point x="60" y="439"/>
      <point x="105" y="466"/>
      <point x="212" y="466" type="curve" smooth="yes"/>
      <point x="375" y="466" type="line"/>
      <point x="355" y="482" type="line"/>
      <point x="466" y="0" type="line"/>
      <point x="601" y="0" type="line"/>
      <point x="593" y="34" type="line"/>
      <point x="477" y="34" type="line"/>
      <point x="496" y="20" type="line"/>
      <point x="385" y="500" type="line"/>
      <point x="207" y="500" type="line" smooth="yes"/>
      <point x="80" y="500"/>
      <point x="25" y="460"/>
      <point x="25" y="358" type="curve" smooth="yes"/>
      <point x="25" y="327"/>
      <point x="30" y="291"/>
      <point x="40" y="248" type="curve" smooth="yes"/>
    </contour>
    <component base="connection_r" xOffset="493"/>
  </outline>
</glyph>
<glyph name="hehgoal-ar.init" format="2">
  <advance width="225"/>
  <unicode hex="FBA8"/>
  <outline>
    <contour>
      <point x="61" y="-248" type="line"/>
      <point x="98" y="-248" type="line"/>
      <point x="135" y="-59" type="line"/>
      <point x="107" y="-59" type="line"/>
    </contour>
    <component base="behDotless-ar.init"/>
  </outline>
</glyph>
<glyph name="hehgoal-ar.medi" format="2">
  <advance width="543"/>
  <unicode hex="FBA9"/>
  <anchor x="424" y="-407" name="bottom"/>
  <anchor x="265" y="282" name="top"/>
  <outline>
    <contour>
      <point x="559" y="-310" type="curve"/>
      <point x="484" y="16" type="line"/>
      <point x="471" y="0" type="line"/>
      <point x="601" y="0" type="line"/>
      <point x="593" y="34" type="line"/>
      <point x="444" y="34" type="line"/>
      <point x="523" y="-310" type="line"/>
      <point x="547" y="-276" type="line"/>
      <point x="515" y="-280"/>
      <point x="482" y="-282"/>
      <point x="458" y="-282" type="curve" smooth="yes"/>
      <point x="322" y="-282"/>
      <point x="261" y="-216"/>
      <point x="200" y="36" type="curve"/>
      <point x="50" y="34" type="line"/>
      <point x="58" y="0" type="line"/>
      <point x="189" y="0" type="line"/>
      <point x="169" y="16" type="line"/>
      <point x="231" y="-250"/>
      <point x="312" y="-316"/>
      <point x="460" y="-316" type="curve" smooth="yes"/>
      <point x="488" y="-316"/>
      <point x="522" y="-314"/>
    </contour>
    <component base="connection_r" xOffset="493"/>
    <component base="connection_l"/>
  </outline>
</glyph>
<glyph name="lam_alefMaksura-ar.fina" format="2">
  <advance width="993"/>
  <unicode hex="FC86"/>
  <outline>
    <contour>
      <point x="951" y="0" type="line"/>
      <point x="1051" y="0" type="line"/>
      <point x="1043" y="34" type="line"/>
      <point x="943" y="34" type="line"/>
    </contour>
    <component base="lam_alefMaksura-ar"/>
    <component base="connection_r" xOffset="943"/>
  </outline>
</glyph>
<glyph name="seen_alefMaksura-ar" format="2">
  <advance width="1523"/>
  <unicode hex="FCFB"/>
  <anchor x="1244" y="-100" name="bottom_1"/>
  <anchor x="551" y="-300" name="bottom_2"/>
  <anchor x="819" y="0" name="caret_1"/>
  <anchor x="1088" y="573" name="top_1"/>
  <anchor x="92" y="266" name="top_2"/>
  <outline>
    <contour>
      <point x="536" y="466" type="line"/>
      <point x="832" y="466" type="line"/>
      <point x="824" y="500" type="line"/>
      <point x="535" y="500" type="line"/>
    </contour>
    <contour>
      <point x="1302" y="0" type="curve" smooth="yes"/>
      <point x="1501" y="0" type="line"/>
      <point x="1436" y="280" type="line" smooth="yes"/>
      <point x="1424" y="333"/>
      <point x="1384" y="434"/>
      <point x="1353" y="502" type="curve"/>
      <point x="1321" y="491" type="line"/>
      <point x="1358" y="409"/>
      <point x="1392" y="318"/>
      <point x="1402" y="276" type="curve" smooth="yes"/>
      <point x="1465" y="0" type="line"/>
      <point x="1492" y="34" type="line"/>
      <point x="1297" y="34" type="line" smooth="yes"/>
      <point x="1262" y="34"/>
      <point x="1228" y="48"/>
      <point x="1188" y="77" type="curve"/>
      <point x="1170" y="50" type="line"/>
      <point x="1217" y="14"/>
      <point x="1261" y="0"/>
    </contour>
    <contour>
      <point x="940" y="0" type="line"/>
      <point x="975" y="0" type="line"/>
      <point x="859" y="500" type="line"/>
      <point x="824" y="500" type="line"/>
    </contour>
    <contour>
      <point x="975" y="0" type="line"/>
      <point x="1109" y="0" type="line" smooth="yes"/>
      <point x="1200" y="0"/>
      <point x="1230" y="36"/>
      <point x="1196" y="180" type="curve" smooth="yes"/>
      <point x="1134" y="450" type="line"/>
      <point x="1099" y="450" type="line"/>
      <point x="1162" y="176" type="line" smooth="yes"/>
      <point x="1190" y="56"/>
      <point x="1177" y="34"/>
      <point x="1104" y="34" type="curve" smooth="yes"/>
      <point x="967" y="34" type="line"/>
    </contour>
    <contour>
      <point x="417" y="-248" type="curve" smooth="yes"/>
      <point x="700" y="-248" type="line" smooth="yes"/>
      <point x="819" y="-248"/>
      <point x="875" y="-189"/>
      <point x="875" y="-78" type="curve" smooth="yes"/>
      <point x="875" y="-63"/>
      <point x="874" y="-37"/>
      <point x="868" y="-8" type="curve" smooth="yes"/>
      <point x="839" y="133"/>
      <point x="739" y="161"/>
      <point x="630" y="190" type="curve" smooth="yes"/>
      <point x="505" y="223"/>
      <point x="438" y="243"/>
      <point x="418" y="339" type="curve" smooth="yes"/>
      <point x="415" y="354"/>
      <point x="413" y="367"/>
      <point x="413" y="380" type="curve" smooth="yes"/>
      <point x="413" y="440"/>
      <point x="454" y="466"/>
      <point x="536" y="466" type="curve"/>
      <point x="535" y="500" type="line"/>
      <point x="432" y="500"/>
      <point x="379" y="461"/>
      <point x="379" y="383" type="curve" smooth="yes"/>
      <point x="379" y="368"/>
      <point x="381" y="351"/>
      <point x="385" y="333" type="curve" smooth="yes"/>
      <point x="413" y="206"/>
      <point x="507" y="188"/>
      <point x="624" y="156" type="curve" smooth="yes"/>
      <point x="742" y="124"/>
      <point x="811" y="99"/>
      <point x="833" y="-9" type="curve" smooth="yes"/>
      <point x="839" y="-38"/>
      <point x="840" y="-66"/>
      <point x="840" y="-80" type="curve" smooth="yes"/>
      <point x="840" y="-172"/>
      <point x="796" y="-214"/>
      <point x="695" y="-214" type="curve" smooth="yes"/>
      <point x="412" y="-214" type="line" smooth="yes"/>
      <point x="279" y="-214"/>
      <point x="170" y="-154"/>
      <point x="137" y="-11" type="curve" smooth="yes"/>
      <point x="128" y="27"/>
      <point x="124" y="75"/>
      <point x="116" y="183" type="curve"/>
      <point x="81" y="184" type="line"/>
      <point x="87" y="103"/>
      <point x="94" y="15"/>
      <point x="108" y="-37" type="curve" smooth="yes"/>
      <point x="147" y="-183"/>
      <point x="281" y="-248"/>
    </contour>
  </outline>
</glyph>
<glyph name="seen_reh-ar" format="2">
  <advance width="1020"/>
  <unicode hex="FD0E"/>
  <anchor x="741" y="-100" name="bottom_1"/>
  <anchor x="248" y="-350" name="bottom_2"/>
  <anchor x="315" y="0" name="caret_1"/>
  <anchor x="585" y="573" name="top_1"/>
  <anchor x="87" y="573" name="top_2"/>
  <outline>
    <contour>
      <point x="799" y="0" type="curve" smooth="yes"/>
      <point x="998" y="0" type="line"/>
      <point x="933" y="280" type="line" smooth="yes"/>
      <point x="921" y="333"/>
      <point x="881" y="434"/>
      <point x="850" y="502" type="curve"/>
      <point x="818" y="491" type="line"/>
      <point x="855" y="409"/>
      <point x="889" y="318"/>
      <point x="899" y="276" type="curve" smooth="yes"/>
      <point x="962" y="0" type="line"/>
      <point x="989" y="34" type="line"/>
      <point x="794" y="34" type="line" smooth="yes"/>
      <point x="759" y="34"/>
      <point x="725" y="48"/>
      <point x="685" y="77" type="curve"/>
      <point x="667" y="50" type="line"/>
      <point x="714" y="14"/>
      <point x="758" y="0"/>
    </contour>
    <contour>
      <point x="144" y="397" type="line"/>
      <point x="345" y="397" type="line"/>
      <point x="337" y="431" type="line"/>
      <point x="136" y="431" type="line"/>
    </contour>
    <contour>
      <point x="437" y="0" type="line"/>
      <point x="472" y="0" type="line"/>
      <point x="356" y="500" type="line"/>
      <point x="321" y="500" type="line"/>
    </contour>
    <contour>
      <point x="472" y="0" type="line"/>
      <point x="606" y="0" type="line" smooth="yes"/>
      <point x="673" y="0"/>
      <point x="707" y="19"/>
      <point x="707" y="86" type="curve" smooth="yes"/>
      <point x="707" y="111"/>
      <point x="702" y="142"/>
      <point x="693" y="180" type="curve" smooth="yes"/>
      <point x="631" y="450" type="line"/>
      <point x="596" y="450" type="line"/>
      <point x="659" y="176" type="line" smooth="yes"/>
      <point x="668" y="138"/>
      <point x="673" y="110"/>
      <point x="673" y="89" type="curve" smooth="yes"/>
      <point x="673" y="44"/>
      <point x="651" y="34"/>
      <point x="601" y="34" type="curve" smooth="yes"/>
      <point x="464" y="34" type="line"/>
    </contour>
    <component base="reh-ar"/>
  </outline>
</glyph>
<glyph name="seen_alefMaksura-ar.fina" format="2">
  <advance width="1543"/>
  <unicode hex="FD17"/>
  <outline>
    <contour>
      <point x="1501" y="0" type="line"/>
      <point x="1601" y="0" type="line"/>
      <point x="1593" y="34" type="line"/>
      <point x="1493" y="34" type="line"/>
    </contour>
    <component base="seen_alefMaksura-ar"/>
    <component base="connection_r" xOffset="1493"/>
  </outline>
</glyph>
<glyph name="sad_alefMaksura-ar.fina" format="2">
  <advance width="1552"/>
  <unicode hex="FD21"/>
  <outline>
    <contour>
      <point x="1510" y="0" type="line"/>
      <point x="1610" y="0" type="line"/>
      <point x="1602" y="34" type="line"/>
      <point x="1502" y="34" type="line"/>
    </contour>
    <component base="sad_alefMaksura-ar"/>
    <component base="connection_r" xOffset="1502"/>
  </outline>
</glyph>
<glyph name="seen_reh-ar.fina" format="2">
  <advance width="1040"/>
  <unicode hex="FD2A"/>
  <outline>
    <contour>
      <point x="998" y="0" type="line"/>
      <point x="1098" y="0" type="line"/>
      <point x="1090" y="34" type="line"/>
      <point x="990" y="34" type="line"/>
    </contour>
    <component base="connection_r" xOffset="990"/>
    <component base="seen_reh-ar"/>
  </outline>
</glyph>
<glyph name="sad_reh-ar.fina" format="2">
  <advance width="1049"/>
  <unicode hex="FD2B"/>
  <outline>
    <contour>
      <point x="1007" y="0" type="line"/>
      <point x="1107" y="0" type="line"/>
      <point x="1099" y="34" type="line"/>
      <point x="999" y="34" type="line"/>
    </contour>
    <component base="connection_r" xOffset="999"/>
    <component base="sad_reh-ar"/>
  </outline>
</glyph>
<glyph name="parenleft-ar" format="2">
  <advance width="198"/>
  <unicode hex="FD3E"/>
  <outline>
    <contour>
      <point x="9" y="754" type="line"/>
      <point x="2" y="720"/>
      <point x="-7" y="636"/>
      <point x="-7" y="529" type="curve" smooth="yes"/>
      <point x="-7" y="288"/>
      <point x="118" y="18"/>
      <point x="213" y="-118" type="curve"/>
      <point x="248" y="-118" type="line"/>
      <point x="153" y="26"/>
      <point x="28" y="301"/>
      <point x="28" y="529" type="curve" smooth="yes"/>
      <point x="28" y="633"/>
      <point x="36" y="718"/>
      <point x="42" y="754" type="curve"/>
    </contour>
  </outline>
</glyph>
<glyph name="dal-ar.fina" format="2">
  <advance width="527"/>
  <unicode hex="FEAA"/>
  <outline>
    <contour>
      <point x="485" y="0" type="line"/>
      <point x="585" y="0" type="line"/>
      <point x="577" y="34" type="line"/>
      <point x="477" y="34" type="line"/>
    </contour>
    <component base="dal-ar"/>
    <component base="connection_r" xOffset="477"/>
  </outline>
</glyph>
<glyph name="sad-ar.init" format="2">
  <advance width="800"/>
  <unicode hex="FEBB"/>
  <anchor x="522" y="-100" name="bottom"/>
  <anchor x="366" y="573" name="top"/>
  <outline>
    <contour>
      <point x="58" y="0" type="line"/>
      <point x="778" y="0" type="line"/>
      <point x="722" y="243" type="line" smooth="yes"/>
      <point x="696" y="355"/>
      <point x="621" y="500"/>
      <point x="432" y="500" type="curve" smooth="yes"/>
      <point x="265" y="500"/>
      <point x="210" y="387"/>
      <point x="151" y="284" type="curve"/>
      <point x="180" y="265" type="line"/>
      <point x="244" y="376"/>
      <point x="294" y="466"/>
      <point x="433" y="466" type="curve" smooth="yes"/>
      <point x="568" y="466"/>
      <point x="654" y="382"/>
      <point x="687" y="239" type="curve" smooth="yes"/>
      <point x="740" y="10" type="line"/>
      <point x="759" y="34" type="line"/>
      <point x="50" y="34" type="line"/>
    </contour>
    <contour>
      <point x="200" y="34" type="line"/>
      <point x="235" y="34" type="line"/>
      <point x="127" y="500" type="line"/>
      <point x="92" y="500" type="line"/>
    </contour>
    <component base="connection_l"/>
  </outline>
</glyph>
<glyph name="tah-ar.init" format="2">
  <advance width="750"/>
  <unicode hex="FEC3"/>
  <anchor x="472" y="-100" name="bottom"/>
  <anchor x="316" y="573" name="top"/>
  <outline>
    <contour>
      <point x="58" y="0" type="line"/>
      <point x="728" y="0" type="line"/>
      <point x="672" y="243" type="line" smooth="yes"/>
      <point x="646" y="355"/>
      <point x="571" y="500"/>
      <point x="382" y="500" type="curve" smooth="yes"/>
      <point x="215" y="500"/>
      <point x="160" y="387"/>
      <point x="101" y="284" type="curve"/>
      <point x="130" y="265" type="line"/>
      <point x="194" y="376"/>
      <point x="244" y="466"/>
      <point x="383" y="466" type="curve" smooth="yes"/>
      <point x="518" y="466"/>
      <point x="604" y="382"/>
      <point x="637" y="239" type="curve" smooth="yes"/>
      <point x="690" y="10" type="line"/>
      <point x="709" y="34" type="line"/>
      <point x="50" y="34" type="line"/>
    </contour>
    <contour>
      <point x="150" y="34" type="line"/>
      <point x="185" y="34" type="line"/>
      <point x="24" y="730" type="line"/>
      <point x="-11" y="730" type="line"/>
    </contour>
    <component base="connection_l"/>
  </outline>
</glyph>
<glyph name="kaf-ar.medi" format="2">
  <advance width="626"/>
  <unicode hex="FEDC"/>
  <outline>
    <contour>
      <point x="584" y="0" type="line"/>
      <point x="684" y="0" type="line"/>
      <point x="676" y="34" type="line"/>
      <point x="576" y="34" type="line"/>
    </contour>
    <component base="kaf-ar.init"/>
    <component base="connection_r" xOffset="576"/>
  </outline>
</glyph>
<glyph name="lam-ar.fina" format="2">
  <advance width="655"/>
  <unicode hex="FEDE"/>
  <outline>
    <contour>
      <point x="613" y="0" type="line"/>
      <point x="713" y="0" type="line"/>
      <point x="705" y="34" type="line"/>
      <point x="605" y="34" type="line"/>
    </contour>
    <component base="lam-ar"/>
    <component base="connection_r" xOffset="605"/>
  </outline>
</glyph>
<glyph name="lam-ar.init" format="2">
  <advance width="215"/>
  <unicode hex="FEDF"/>
  <anchor x="199" y="-100" name="bottom"/>
  <anchor x="-9" y="800" name="top"/>
  <outline>
    <contour>
      <point x="158" y="0" type="line"/>
      <point x="193" y="0" type="line"/>
      <point x="24" y="730" type="line"/>
      <point x="-11" y="730" type="line"/>
    </contour>
    <contour>
      <point x="58" y="0" type="line"/>
      <point x="158" y="0" type="line"/>
      <point x="151" y="34" type="line"/>
      <point x="50" y="34" type="line"/>
    </contour>
    <component base="connection_l"/>
  </outline>
</glyph>
<glyph name="meem-ar.init" format="2">
  <advance width="616"/>
  <unicode hex="FEE3"/>
  <anchor x="383" y="-100" name="bottom"/>
  <anchor x="227" y="573" name="top"/>
  <outline>
    <contour>
      <point x="56" y="0" type="line"/>
      <point x="119" y="0"/>
      <point x="487" y="0"/>
      <point x="592" y="0" type="curve"/>
      <point x="537" y="247" type="line" smooth="yes"/>
      <point x="494" y="434"/>
      <point x="400" y="500"/>
      <point x="243" y="500" type="curve" smooth="yes"/>
      <point x="168" y="500"/>
      <point x="106" y="484"/>
      <point x="83" y="471" type="curve"/>
      <point x="81" y="424"/>
      <point x="88" y="325"/>
      <point x="111" y="225" type="curve" smooth="yes"/>
      <point x="132" y="131"/>
      <point x="165" y="47"/>
      <point x="181" y="12" type="curve"/>
      <point x="218" y="13" type="line"/>
      <point x="208" y="31"/>
      <point x="170" y="122"/>
      <point x="144" y="231" type="curve" smooth="yes"/>
      <point x="123" y="326"/>
      <point x="115" y="422"/>
      <point x="116" y="467" type="curve"/>
      <point x="101" y="443" type="line"/>
      <point x="128" y="457"/>
      <point x="191" y="466"/>
      <point x="245" y="466" type="curve" smooth="yes"/>
      <point x="393" y="466"/>
      <point x="466" y="402"/>
      <point x="503" y="243" type="curve" smooth="yes"/>
      <point x="558" y="0" type="line"/>
      <point x="577" y="34" type="line"/>
      <point x="472" y="34"/>
      <point x="111" y="34"/>
      <point x="50" y="34" type="curve"/>
    </contour>
    <component base="connection_l"/>
  </outline>
</glyph>
<glyph name="heh-ar.medi" format="2">
  <advance width="613"/>
  <unicode hex="FEEC"/>
  <anchor x="413" y="-350" name="bottom"/>
  <anchor x="199" y="573" name="top"/>
  <outline>
    <contour>
      <point x="58" y="0" type="line"/>
      <point x="571" y="0" type="line"/>
      <point x="514" y="247" type="line" smooth="yes"/>
      <point x="471" y="434"/>
      <point x="377" y="500"/>
      <point x="220" y="500" type="curve" smooth="yes"/>
      <point x="145" y="500"/>
      <point x="83" y="484"/>
      <point x="60" y="471" type="curve"/>
      <point x="58" y="424"/>
      <point x="64" y="326"/>
      <point x="88" y="223" type="curve" smooth="yes"/>
      <point x="113" y="116"/>
      <point x="153" y="19"/>
      <point x="165" y="-2" type="curve"/>
      <point x="195" y="13" type="line"/>
      <point x="185" y="31"/>
      <point x="146" y="123"/>
      <point x="122" y="229" type="curve" smooth="yes"/>
      <point x="99" y="327"/>
      <point x="92" y="422"/>
      <point x="93" y="467" type="curve"/>
      <point x="78" y="443" type="line"/>
      <point x="105" y="457"/>
      <point x="167" y="466"/>
      <point x="223" y="466" type="curve" smooth="yes"/>
      <point x="370" y="466"/>
      <point x="443" y="401"/>
      <point x="480" y="243" type="curve" smooth="yes"/>
      <point x="535" y="0" type="line"/>
      <point x="562" y="34" type="line"/>
      <point x="50" y="34" type="line"/>
    </contour>
    <contour>
      <point x="386" y="-247" type="curve" smooth="yes"/>
      <point x="525" y="-247"/>
      <point x="599" y="-217"/>
      <point x="599" y="-139" type="curve" smooth="yes"/>
      <point x="599" y="-128"/>
      <point x="597" y="-115"/>
      <point x="594" y="-102" type="curve" smooth="yes"/>
      <point x="563" y="34" type="line"/>
      <point x="528" y="34" type="line"/>
      <point x="560" y="-106" type="line" smooth="yes"/>
      <point x="562" y="-116"/>
      <point x="564" y="-126"/>
      <point x="564" y="-135" type="curve" smooth="yes"/>
      <point x="564" y="-191"/>
      <point x="512" y="-213"/>
      <point x="388" y="-213" type="curve" smooth="yes"/>
      <point x="323" y="-213"/>
      <point x="255" y="-207"/>
      <point x="223" y="-199" type="curve"/>
      <point x="249" y="-218" type="line"/>
      <point x="211" y="-158"/>
      <point x="187" y="-86"/>
      <point x="187" y="-12" type="curve" smooth="yes"/>
      <point x="187" y="1"/>
      <point x="188" y="12"/>
      <point x="190" y="18" type="curve"/>
      <point x="158" y="33" type="line"/>
      <point x="156" y="27"/>
      <point x="153" y="8"/>
      <point x="153" y="-18" type="curve" smooth="yes"/>
      <point x="153" y="-93"/>
      <point x="181" y="-170"/>
      <point x="219" y="-234" type="curve"/>
      <point x="248" y="-239"/>
      <point x="314" y="-247"/>
    </contour>
    <contour>
      <point x="571" y="0" type="line"/>
      <point x="671" y="0" type="line"/>
      <point x="663" y="34" type="line"/>
      <point x="563" y="34" type="line"/>
    </contour>
    <component base="connection_r" xOffset="563"/>
    <component base="connection_l"/>
  </outline>
</glyph>
<glyph name="alefMaksura-ar.fina" format="2">
  <advance width="863"/>
  <unicode hex="FEF0"/>
  <anchor x="551" y="-300" name="bottom"/>
  <anchor x="92" y="266" name="top"/>
  <outline>
    <contour>
      <point x="417" y="-248" type="curve" smooth="yes"/>
      <point x="700" y="-248" type="line" smooth="yes"/>
      <point x="819" y="-248"/>
      <point x="876" y="-183"/>
      <point x="876" y="-84" type="curve" smooth="yes"/>
      <point x="876" y="-61"/>
      <point x="873" y="-36"/>
      <point x="867" y="-9" type="curve" smooth="yes"/>
      <point x="861" y="18" type="line"/>
      <point x="826" y="18" type="line"/>
      <point x="831" y="-8" type="line"/>
      <point x="838" y="-36"/>
      <point x="841" y="-62"/>
      <point x="841" y="-84" type="curve" smooth="yes"/>
      <point x="841" y="-172"/>
      <point x="790" y="-214"/>
      <point x="695" y="-214" type="curve" smooth="yes"/>
      <point x="412" y="-214" type="line" smooth="yes"/>
      <point x="279" y="-214"/>
      <point x="170" y="-154"/>
      <point x="137" y="-11" type="curve" smooth="yes"/>
      <point x="127" y="32"/>
      <point x="123" y="90"/>
      <point x="116" y="183" type="curve"/>
      <point x="81" y="184" type="line"/>
      <point x="87" y="98"/>
      <point x="97" y="4"/>
      <point x="107" y="-38" type="curve" smooth="yes"/>
      <point x="135" y="-164"/>
      <point x="270" y="-248"/>
    </contour>
    <contour>
      <point x="741" y="0" type="curve" smooth="yes"/>
      <point x="921" y="0" type="line"/>
      <point x="913" y="34" type="line"/>
      <point x="736" y="34" type="line" smooth="yes"/>
      <point x="690" y="34"/>
      <point x="655" y="43"/>
      <point x="626" y="59" type="curve"/>
      <point x="613" y="28" type="line"/>
      <point x="657" y="3"/>
      <point x="705" y="0"/>
    </contour>
    <component base="connection_r" xOffset="813"/>
  </outline>
</glyph>
<glyph name="lam_alef-ar" format="2">
  <advance width="603"/>
  <unicode hex="FEFB"/>
  <anchor x="567" y="-60" name="bottom_1"/>
  <anchor x="300" y="-60" name="bottom_2"/>
  <anchor x="354" y="0" name="caret_1"/>
  <anchor x="372" y="782" name="top_1"/>
  <anchor x="139" y="634" name="top_2"/>
  <outline>
    <contour>
      <point x="98" y="0" type="line"/>
      <point x="571" y="0" type="line"/>
      <point x="402" y="730" type="line"/>
      <point x="367" y="730" type="line"/>
      <point x="535" y="0" type="line"/>
      <point x="562" y="34" type="line"/>
      <point x="90" y="34" type="line"/>
    </contour>
    <contour>
      <point x="260" y="34" type="line"/>
      <point x="295" y="34" type="line"/>
      <point x="168" y="583" type="line"/>
      <point x="133" y="583" type="line"/>
    </contour>
  </outline>
</glyph>
<glyph name="alef-ar.fina.short" format="2">
  <advance width="235"/>
  <outline>
    <contour>
      <point x="193" y="0" type="line"/>
      <point x="293" y="0" type="line"/>
      <point x="285" y="34" type="line"/>
      <point x="185" y="34" type="line"/>
    </contour>
    <component base="alef-ar.short"/>
    <component base="connection_r" xOffset="185"/>
  </outline>
</glyph>
<glyph name="alef-ar.short" format="2">
  <advance width="235"/>
  <anchor x="184" y="-37" name="bottom"/>
  <anchor x="21" y="668" name="top"/>
  <outline>
    <contour>
      <point x="158" y="0" type="line"/>
      <point x="193" y="0" type="line"/>
      <point x="46" y="635" type="line"/>
      <point x="11" y="635" type="line"/>
    </contour>
  </outline>
</glyph>
<glyph name="behDotless-ar.init" format="2">
  <advance width="225"/>
  <anchor x="190" y="-60" name="bottom"/>
  <anchor x="43" y="573" name="top"/>
  <outline>
    <contour>
      <point x="58" y="0" type="line"/>
      <point x="193" y="0" type="line"/>
      <point x="77" y="500" type="line"/>
      <point x="42" y="500" type="line"/>
      <point x="153" y="20" type="line"/>
      <point x="164" y="34" type="line"/>
      <point x="50" y="34" type="line"/>
    </contour>
    <component base="connection_l"/>
  </outline>
</glyph>
<glyph name="breve.cap" format="2">
  <advance width="424"/>
  <outline>
    <contour>
      <point x="399" y="804" type="curve" smooth="yes"/>
      <point x="471" y="804"/>
      <point x="533" y="845"/>
      <point x="552" y="921" type="curve"/>
      <point x="522" y="921" type="line"/>
      <point x="509" y="868"/>
      <point x="458" y="834"/>
      <point x="406" y="834" type="curve" smooth="yes"/>
      <point x="352" y="834"/>
      <point x="320" y="853"/>
      <point x="332" y="921" type="curve"/>
      <point x="302" y="921" type="line"/>
      <point x="287" y="840"/>
      <point x="325" y="804"/>
    </contour>
  </outline>
</glyph>
<glyph name="caron.cap" format="2">
  <advance width="424"/>
  <outline>
    <contour>
      <point x="392" y="803" type="line"/>
      <point x="409" y="803" type="line"/>
      <point x="564" y="931" type="line"/>
      <point x="524" y="931" type="line"/>
      <point x="404" y="832" type="line"/>
      <point x="327" y="931" type="line"/>
      <point x="292" y="931" type="line"/>
    </contour>
  </outline>
</glyph>
<glyph name="connection_l" format="2">
  <advance width="50"/>
  <outline>
    <contour>
      <point x="58" y="0" type="curve"/>
      <point x="50" y="34" type="line"/>
      <point x="37" y="34"/>
      <point x="34" y="29"/>
      <point x="34" y="22" type="curve" smooth="yes"/>
      <point x="34" y="10"/>
      <point x="37" y="0"/>
    </contour>
  </outline>
</glyph>
<glyph name="connection_r" format="2">
  <advance width="50"/>
  <outline>
    <contour>
      <point x="108" y="0" type="line"/>
      <point x="121" y="0"/>
      <point x="125" y="4"/>
      <point x="125" y="11" type="curve" smooth="yes"/>
      <point x="125" y="19"/>
      <point x="122" y="34"/>
      <point x="100" y="34" type="curve"/>
    </contour>
  </outline>
</glyph>
<glyph name="dotaccent.cap" format="2">
  <advance width="204"/>
  <outline>
    <contour>
      <point x="271" y="807" type="line"/>
      <point x="300" y="807" type="line"/>
      <point x="311" y="865" type="line"/>
      <point x="283" y="865" type="line"/>
    </contour>
  </outline>
</glyph>
<glyph name="dotcenter-ar.alt" format="2">
  <advance width="75"/>
  <anchor x="16" y="347" name="_center"/>
  <outline>
    <contour>
      <point x="4" y="319" type="line"/>
      <point x="39" y="319" type="line"/>
      <point x="26" y="374" type="line"/>
      <point x="-9" y="374" type="line"/>
    </contour>
  </outline>
</glyph>
<glyph name="eight.pnum" format="2">
  <advance width="497"/>
  <outline>
    <contour>
      <point x="240" y="-10" type="curve" smooth="yes"/>
      <point x="410" y="-10"/>
      <point x="472" y="66"/>
      <point x="472" y="173" type="curve" smooth="yes"/>
      <point x="472" y="217"/>
      <point x="446" y="247"/>
      <point x="386" y="263" type="curve"/>
      <point x="460" y="278"/>
      <point x="526" y="322"/>
      <point x="526" y="415" type="curve" smooth="yes"/>
      <point x="526" y="473"/>
      <point x="475" y="509"/>
      <point x="369" y="509" type="curve" smooth="yes"/>
      <point x="218" y="509"/>
      <point x="154" y="432"/>
      <point x="154" y="353" type="curve" smooth="yes"/>
      <point x="154" y="312"/>
      <point x="172" y="283"/>
      <point x="226" y="263" type="curve"/>
      <point x="156" y="240"/>
      <point x="82" y="197"/>
      <point x="82" y="86" type="curve" smooth="yes"/>
      <point x="82" y="27"/>
      <point x="134" y="-10"/>
    </contour>
    <contour>
      <point x="248" y="22" type="curve" smooth="yes"/>
      <point x="163" y="22"/>
      <point x="118" y="44"/>
      <point x="118" y="90" type="curve" smooth="yes"/>
      <point x="118" y="186"/>
      <point x="186" y="230"/>
      <point x="256" y="246" type="curve"/>
      <point x="345" y="246" type="line"/>
      <point x="406" y="230"/>
      <point x="436" y="209"/>
      <point x="436" y="176" type="curve" smooth="yes"/>
      <point x="436" y="80"/>
      <point x="380" y="22"/>
    </contour>
    <contour>
      <point x="264" y="278" type="line"/>
      <point x="203" y="297"/>
      <point x="190" y="318"/>
      <point x="190" y="352" type="curve" smooth="yes"/>
      <point x="190" y="390"/>
      <point x="209" y="477"/>
      <point x="355" y="477" type="curve" smooth="yes"/>
      <point x="450" y="477"/>
      <point x="490" y="454"/>
      <point x="490" y="410" type="curve" smooth="yes"/>
      <point x="490" y="326"/>
      <point x="428" y="299"/>
      <point x="353" y="278" type="curve"/>
    </contour>
  </outline>
</glyph>
<glyph name="five.pnum" format="2">
  <advance width="459"/>
  <outline>
    <contour>
      <point x="232" y="-9" type="curve" smooth="yes"/>
      <point x="372" y="-9"/>
      <point x="448" y="86"/>
      <point x="448" y="206" type="curve" smooth="yes"/>
      <point x="448" y="270"/>
      <point x="405" y="313"/>
      <point x="315" y="313" type="curve" smooth="yes"/>
      <point x="273" y="313"/>
      <point x="205" y="292"/>
      <point x="166" y="276" type="curve"/>
      <point x="228" y="469" type="line"/>
      <point x="491" y="469" type="line"/>
      <point x="499" y="501" type="line"/>
      <point x="203" y="501" type="line"/>
      <point x="123" y="244" type="line"/>
      <point x="146" y="238" type="line"/>
      <point x="188" y="256"/>
      <point x="261" y="281"/>
      <point x="306" y="281" type="curve" smooth="yes"/>
      <point x="390" y="281"/>
      <point x="411" y="249"/>
      <point x="411" y="198" type="curve" smooth="yes"/>
      <point x="411" y="105"/>
      <point x="346" y="23"/>
      <point x="240" y="23" type="curve" smooth="yes"/>
      <point x="194" y="23"/>
      <point x="119" y="33"/>
      <point x="76" y="41" type="curve"/>
      <point x="64" y="9" type="line"/>
      <point x="108" y="1"/>
      <point x="184" y="-9"/>
    </contour>
  </outline>
</glyph>
<glyph name="four.pnum" format="2">
  <advance width="454"/>
  <outline>
    <contour>
      <point x="320" y="0" type="line"/>
      <point x="355" y="0" type="line"/>
      <point x="382" y="111" type="line"/>
      <point x="443" y="111" type="line"/>
      <point x="451" y="143" type="line"/>
      <point x="390" y="143" type="line"/>
      <point x="424" y="280" type="line"/>
      <point x="389" y="280" type="line"/>
      <point x="355" y="143" type="line"/>
      <point x="116" y="143" type="line"/>
      <point x="378" y="500" type="line"/>
      <point x="336" y="500" type="line"/>
      <point x="73" y="142" type="line"/>
      <point x="66" y="111" type="line"/>
      <point x="347" y="111" type="line"/>
    </contour>
  </outline>
</glyph>
<glyph name="grave.cap" format="2">
  <advance width="475"/>
  <outline>
    <contour>
      <point x="514" y="798" type="line"/>
      <point x="529" y="820" type="line"/>
      <point x="369" y="917" type="line"/>
      <point x="352" y="890" type="line"/>
    </contour>
  </outline>
</glyph>
<glyph name="hungarumlaut.cap" format="2">
  <advance width="651"/>
  <outline>
    <contour>
      <point x="500" y="765" type="line"/>
      <point x="703" y="852" type="line"/>
      <point x="695" y="875" type="line"/>
      <point x="496" y="789" type="line"/>
    </contour>
    <contour>
      <point x="321" y="766" type="line"/>
      <point x="522" y="852" type="line"/>
      <point x="518" y="876" type="line"/>
      <point x="315" y="789" type="line"/>
    </contour>
  </outline>
</glyph>
<glyph name="kafDotless-ar.fina" format="2">
  <advance width="771"/>
  <outline>
    <contour>
      <point x="729" y="0" type="line"/>
      <point x="829" y="0" type="line"/>
      <point x="821" y="34" type="line"/>
      <point x="721" y="34" type="line"/>
    </contour>
    <component base="kafDotless-ar"/>
    <component base="connection_r" xOffset="721"/>
  </outline>
</glyph>
<glyph name="kafDotless-ar" format="2">
  <advance width="751"/>
  <anchor x="437" y="-100" name="bottom"/>
  <anchor x="344" y="300" name="top"/>
  <outline>
    <contour>
      <point x="393" y="0" type="curve" smooth="yes"/>
      <point x="729" y="0" type="line"/>
      <point x="560" y="730" type="line"/>
      <point x="525" y="730" type="line"/>
      <point x="689" y="20" type="line"/>
      <point x="700" y="34" type="line"/>
      <point x="388" y="34" type="line" smooth="yes"/>
      <point x="205" y="34"/>
      <point x="112" y="92"/>
      <point x="83" y="216" type="curve" smooth="yes"/>
      <point x="74" y="255"/>
      <point x="68" y="335"/>
      <point x="68" y="386" type="curve"/>
      <point x="34" y="392" type="line"/>
      <point x="34" y="331"/>
      <point x="39" y="256"/>
      <point x="49" y="210" type="curve" smooth="yes"/>
      <point x="83" y="65"/>
      <point x="194" y="0"/>
    </contour>
  </outline>
</glyph>
<glyph name="one.pnum" format="2">
  <advance width="311"/>
  <outline>
    <contour>
      <point x="194" y="0" type="line"/>
      <point x="229" y="0" type="line"/>
      <point x="353" y="500" type="line"/>
      <point x="318" y="500" type="line"/>
      <point x="121" y="391" type="line"/>
      <point x="132" y="360" type="line"/>
      <point x="308" y="458" type="line"/>
    </contour>
  </outline>
</glyph>
<glyph name="periodcentered.cap" format="2">
  <advance width="182"/>
  <outline>
    <contour>
      <point x="141" y="300" type="line"/>
      <point x="179" y="300" type="line"/>
      <point x="197" y="383" type="line"/>
      <point x="159" y="383" type="line"/>
    </contour>
  </outline>
</glyph>
<glyph name="seven.pnum" format="2">
  <advance width="389"/>
  <outline>
    <contour>
      <point x="127" y="-10" type="line"/>
      <point x="455" y="448" type="line"/>
      <point x="468" y="501" type="line"/>
      <point x="151" y="501" type="line"/>
      <point x="143" y="469" type="line"/>
      <point x="424" y="469" type="line"/>
      <point x="419" y="451" type="line"/>
      <point x="98" y="7" type="line"/>
    </contour>
  </outline>
</glyph>
<glyph name="tilde.cap" format="2">
  <advance width="418"/>
  <outline>
    <contour>
      <point x="497" y="829" type="curve" smooth="yes"/>
      <point x="517" y="829"/>
      <point x="561" y="861"/>
      <point x="588" y="886" type="curve"/>
      <point x="584" y="911" type="line"/>
      <point x="557" y="889"/>
      <point x="517" y="860"/>
      <point x="505" y="860" type="curve" smooth="yes"/>
      <point x="474" y="860"/>
      <point x="413" y="923"/>
      <point x="369" y="923" type="curve" smooth="yes"/>
      <point x="346" y="923"/>
      <point x="300" y="891"/>
      <point x="272" y="866" type="curve"/>
      <point x="273" y="838" type="line"/>
      <point x="303" y="862"/>
      <point x="347" y="893"/>
      <point x="362" y="893" type="curve" smooth="yes"/>
      <point x="390" y="893"/>
      <point x="457" y="829"/>
    </contour>
  </outline>
</glyph>
<glyph name="two.pnum" format="2">
  <advance width="451"/>
  <outline>
    <contour>
      <point x="49" y="0" type="line"/>
      <point x="407" y="0" type="line"/>
      <point x="407" y="32" type="line"/>
      <point x="107" y="32" type="line"/>
      <point x="334" y="192" type="line" smooth="yes"/>
      <point x="404" y="241"/>
      <point x="482" y="308"/>
      <point x="482" y="412" type="curve" smooth="yes"/>
      <point x="482" y="470"/>
      <point x="442" y="509"/>
      <point x="348" y="509" type="curve" smooth="yes"/>
      <point x="296" y="509"/>
      <point x="216" y="497"/>
      <point x="170" y="488" type="curve"/>
      <point x="165" y="457" type="line"/>
      <point x="166" y="458"/>
      <point x="277" y="477"/>
      <point x="335" y="477" type="curve" smooth="yes"/>
      <point x="429" y="477"/>
      <point x="446" y="444"/>
      <point x="446" y="400" type="curve" smooth="yes"/>
      <point x="446" y="323"/>
      <point x="378" y="262"/>
      <point x="301" y="207" type="curve" smooth="yes"/>
      <point x="56" y="32" type="line"/>
    </contour>
  </outline>
</glyph>
<glyph name="wasla-ar" format="2">
  <advance width="217"/>
  <anchor x="48" y="515" name="_top"/>
  <anchor x="11" y="676" name="top"/>
  <outline>
    <contour>
      <point x="-22" y="547" type="curve"/>
      <point x="13" y="551" type="line"/>
      <point x="8" y="573"/>
      <point x="20" y="588"/>
      <point x="41" y="588" type="curve" smooth="yes"/>
      <point x="66" y="588"/>
      <point x="88" y="569"/>
      <point x="93" y="547" type="curve"/>
      <point x="128" y="551" type="line"/>
      <point x="117" y="595"/>
      <point x="77" y="622"/>
      <point x="39" y="622" type="curve" smooth="yes"/>
      <point x="-1" y="622"/>
      <point x="-32" y="591"/>
    </contour>
    <contour>
      <point x="-41" y="515" type="line"/>
      <point x="136" y="515" type="line"/>
      <point x="128" y="549" type="line"/>
      <point x="-49" y="549" type="line"/>
    </contour>
  </outline>
</glyph>
<glyph name="zero.pnum" format="2">
  <advance width="522"/>
  <outline>
    <contour>
      <point x="253" y="-9" type="curve" smooth="yes"/>
      <point x="324" y="-9"/>
      <point x="381" y="15"/>
      <point x="423" y="56" type="curve" smooth="yes"/>
      <point x="504" y="134"/>
      <point x="536" y="265"/>
      <point x="536" y="351" type="curve" smooth="yes"/>
      <point x="536" y="447"/>
      <point x="501" y="509"/>
      <point x="381" y="509" type="curve" smooth="yes"/>
      <point x="328" y="509"/>
      <point x="281" y="494"/>
      <point x="241" y="465" type="curve" smooth="yes"/>
      <point x="153" y="401"/>
      <point x="103" y="276"/>
      <point x="103" y="153" type="curve" smooth="yes"/>
      <point x="103" y="52"/>
      <point x="135" y="-9"/>
    </contour>
    <contour>
      <point x="262" y="23" type="curve" smooth="yes"/>
      <point x="171" y="23"/>
      <point x="138" y="62"/>
      <point x="138" y="154" type="curve" smooth="yes"/>
      <point x="138" y="321"/>
      <point x="234" y="477"/>
      <point x="374" y="477" type="curve" smooth="yes"/>
      <point x="472" y="477"/>
      <point x="501" y="435"/>
      <point x="501" y="342" type="curve" smooth="yes"/>
      <point x="501" y="272"/>
      <point x="449" y="23"/>
    </contour>
  </outline>
</glyph>
<glyph name="zero.slash" format="2">
  <advance width="560"/>
  <outline>
    <contour>
      <point x="152" y="-65" type="line"/>
      <point x="186" y="-65" type="line"/>
      <point x="236" y="21" type="line"/>
      <point x="202" y="21" type="line"/>
    </contour>
    <contour>
      <point x="470" y="645" type="line"/>
      <point x="506" y="645" type="line"/>
      <point x="556" y="731" type="line"/>
      <point x="520" y="731" type="line"/>
    </contour>
    <contour>
      <point x="330" y="283" type="line"/>
      <point x="366" y="283" type="line"/>
      <point x="385" y="366" type="line"/>
      <point x="349" y="366" type="line"/>
    </contour>
    <component base="zero"/>
  </outline>
</glyph>
